<?xml version="1.0" standalone="no"?>
<!DOCTYPE svg PUBLIC "-//W3C//DTD SVG 20010904//EN"
 "http://www.w3.org/TR/2001/REC-SVG-20010904/DTD/svg10.dtd">
<svg version="1.0" xmlns="http://www.w3.org/2000/svg"
 width="287.000000pt" height="157.000000pt" viewBox="0 0 287.000000 157.000000"
 preserveAspectRatio="xMidYMid meet">
<metadata>
Created by potrace 1.10, written by Peter Selinger 2001-2011
</metadata>
<g transform="translate(0.000000,157.000000) scale(0.100000,-0.100000)"
fill="#000000" stroke="none">
<path d="M3 1530 c0 -25 2 -35 4 -22 2 12 2 32 0 45 -2 12 -4 2 -4 -23z"/>
<path d="M32 1533 c-2 -43 -2 -43 33 -43 35 0 35 0 33 43 l-1 42 -4 -37 c-4
-32 -8 -38 -28 -38 -20 0 -24 6 -28 38 l-4 37 -1 -42z"/>
<path d="M122 1533 c-2 -43 -2 -43 33 -43 35 0 35 0 33 43 l-1 42 -4 -37 c-4
-32 -8 -38 -28 -38 -20 0 -24 6 -28 38 l-4 37 -1 -42z"/>
<path d="M212 1533 c-2 -43 -2 -43 33 -43 35 0 35 0 33 43 l-1 42 -4 -37 c-4
-32 -8 -38 -28 -38 -20 0 -24 6 -28 38 l-4 37 -1 -42z"/>
<path d="M302 1533 c-2 -41 -1 -43 28 -43 29 0 30 2 28 43 l-1 42 -4 -37 c-3
-29 -9 -38 -23 -38 -14 0 -20 9 -23 38 l-4 37 -1 -42z"/>
<path d="M382 1533 c-2 -43 -2 -43 33 -43 35 0 35 0 33 43 l-1 42 -4 -37 c-4
-32 -8 -38 -28 -38 -20 0 -24 6 -28 38 l-4 37 -1 -42z"/>
<path d="M472 1533 c-2 -43 -2 -43 33 -43 35 0 35 0 33 43 l-1 42 -4 -37 c-4
-32 -8 -38 -28 -38 -20 0 -24 6 -28 38 l-4 37 -1 -42z"/>
<path d="M562 1533 c-2 -43 -2 -43 33 -43 35 0 35 0 33 43 l-1 42 -4 -37 c-4
-32 -8 -38 -28 -38 -20 0 -24 6 -28 38 l-4 37 -1 -42z"/>
<path d="M652 1533 c-2 -43 -2 -43 33 -43 35 0 35 0 33 43 l-1 42 -4 -37 c-4
-32 -8 -38 -28 -38 -20 0 -24 6 -28 38 l-4 37 -1 -42z"/>
<path d="M742 1533 c-2 -43 -2 -43 33 -43 35 0 35 0 33 43 l-1 42 -4 -37 c-4
-32 -8 -38 -28 -38 -20 0 -24 6 -28 38 l-4 37 -1 -42z"/>
<path d="M832 1533 c-2 -43 -2 -43 33 -43 35 0 35 0 33 43 l-1 42 -4 -37 c-4
-32 -8 -38 -28 -38 -20 0 -24 6 -28 38 l-4 37 -1 -42z"/>
<path d="M922 1533 c-2 -43 -2 -43 33 -43 l36 0 -7 38 c-9 50 -14 53 -14 9 0
-30 -4 -37 -19 -37 -15 0 -21 8 -24 38 l-4 37 -1 -42z"/>
<path d="M1002 1533 l-2 -43 40 0 41 0 -7 38 c-9 50 -14 53 -14 9 0 -33 -3
-37 -24 -37 -21 0 -25 5 -29 38 l-4 37 -1 -42z"/>
<path d="M1091 1532 c-1 -35 -5 -45 -21 -49 -11 -3 -20 -13 -20 -22 0 -11 3
-12 8 -4 5 7 15 -2 29 -28 12 -21 17 -39 12 -39 -5 0 -9 -16 -9 -35 0 -35 0
-35 43 -33 l42 1 -37 4 c-33 4 -38 8 -38 29 0 21 5 24 34 24 19 0 37 6 39 13
3 6 6 -7 6 -30 1 -40 3 -43 30 -43 28 0 28 -1 28 -60 0 -79 -22 -101 -101
-103 -31 -1 -56 1 -56 6 0 4 -16 7 -35 7 -46 0 -48 27 -2 33 31 4 31 4 -5 5
-36 2 -38 1 -39 -30 0 -31 -1 -31 -10 -10 -5 13 -7 28 -3 33 3 5 -11 9 -30 9
-33 0 -36 -2 -36 -30 0 -31 -19 -43 -21 -12 0 10 -3 12 -6 5 -2 -7 -15 -13
-28 -13 -13 0 -26 6 -28 13 -3 6 -6 3 -6 -8 -1 -20 5 -21 215 -24 l215 -3 -3
91 c-2 50 0 91 5 91 4 0 8 -102 9 -227 0 -126 3 -213 5 -195 2 17 10 32 16 32
7 0 6 4 -3 11 -11 8 -12 12 -2 16 6 2 12 17 12 33 0 16 6 31 13 33 6 3 2 6
-10 6 -13 1 -23 6 -23 11 0 6 10 10 23 11 16 0 18 2 7 7 -9 4 -15 18 -14 32 1
14 -3 29 -10 33 -8 6 -8 10 2 14 6 2 12 12 12 22 0 9 -6 23 -12 30 -10 11 -10
13 0 7 6 -4 12 -3 12 3 0 5 -6 12 -12 14 -9 4 -9 8 -3 14 6 4 10 19 10 33 -1
14 4 28 10 32 6 5 3 8 -7 8 -10 0 -18 5 -18 10 0 6 11 10 25 10 l25 0 0 -189
c0 -142 -3 -191 -12 -194 -10 -4 -10 -6 0 -6 7 -1 12 -15 13 -33 1 -28 3 -25
11 16 5 26 8 129 6 227 -2 99 0 179 5 179 4 0 7 -40 7 -90 l0 -90 175 0 c115
0 175 -4 175 -10 0 -7 -58 -10 -175 -8 l-175 3 2 -130 c0 -71 3 -115 5 -97 4
26 9 32 29 32 33 0 35 -46 2 -53 -18 -3 -17 -5 7 -6 28 -1 30 1 30 34 0 32 -2
35 -30 35 -30 0 -30 1 -30 55 l0 55 35 2 35 1 -32 4 c-26 3 -33 9 -33 26 0 18
6 22 35 23 32 0 35 -2 35 -28 0 -26 3 -28 39 -28 36 0 39 2 33 23 -5 18 -7 19
-10 5 -5 -26 -52 -24 -52 1 0 15 9 20 40 23 38 3 40 2 40 -24 0 -25 3 -28 34
-28 32 0 35 3 39 33 l4 32 1 -32 c2 -31 4 -33 41 -33 37 0 40 2 44 33 l4 32 1
-32 c2 -31 4 -33 42 -33 39 0 40 1 40 34 0 33 -2 35 -32 33 -25 -2 -34 3 -36
17 -3 16 1 18 32 14 31 -3 36 -1 35 17 0 11 -3 14 -6 8 -6 -17 -63 -17 -64 0
0 6 -4 3 -9 -8 -7 -17 -9 -15 -9 13 -1 31 -3 32 -40 32 -37 0 -40 -2 -44 -32
l-4 -33 -1 33 c-2 24 -7 32 -19 31 -11 0 -13 -3 -5 -6 22 -9 13 -33 -12 -33
-18 0 -26 7 -29 23 -3 17 -5 16 -6 -8 l-1 -30 -80 1 c-44 1 -79 5 -77 10 1 5
6 8 12 6 5 -2 7 0 3 4 -4 4 -2 14 5 23 10 14 10 14 -4 3 -14 -10 -18 -10 -23
5 -4 10 -3 19 3 21 5 2 8 9 6 15 -2 7 -6 27 -9 45 -5 31 -4 32 27 32 32 0 33
1 29 35 -4 31 -8 35 -31 34 -23 -2 -24 -2 -3 -6 33 -7 31 -53 -2 -53 -20 0
-25 6 -29 33 l-4 32 -1 -32 c-2 -41 -22 -44 -22 -3 0 26 -3 30 -27 29 -24 -2
-25 -2 -5 -6 33 -7 31 -53 -2 -53 -20 0 -25 6 -29 33 l-4 32 -1 -32 c-2 -31
-4 -33 -42 -33 -40 0 -40 0 -40 40 0 33 3 40 20 40 22 0 27 -15 8 -23 -7 -3
-1 -6 14 -6 17 -1 29 5 32 17 5 14 14 17 41 14 30 -4 35 -1 35 16 0 11 3 27 6
36 5 13 -2 16 -37 18 l-44 1 40 6 40 6 -6 40 -6 40 -2 -37 c-1 -31 -5 -38 -21
-38 -13 0 -22 9 -26 28 -9 43 -12 49 -13 25 -1 -13 -5 -23 -10 -23 -5 0 -7 9
-4 20 8 29 -6 25 -17 -6 -13 -32 -41 -29 -51 6 -7 24 -7 24 -9 -5 -2 -22 -4
-25 -7 -10 -3 11 -9 25 -15 30 -6 6 -7 3 -2 -9 6 -16 4 -18 -14 -14 -12 4 -20
2 -16 -3 3 -5 -2 -9 -10 -9 -8 0 -17 10 -19 23 -2 12 -5 2 -6 -21z m85 -26
c11 -8 15 -18 10 -23 -5 -4 -11 -2 -13 5 -3 6 -15 12 -29 12 -17 0 -25 -7 -30
-25 -10 -41 38 -78 52 -40 7 16 24 21 24 6 0 -15 -30 -41 -46 -41 -21 0 -54
37 -54 60 0 23 33 60 53 60 7 0 22 -6 33 -14z m84 -46 c0 -33 -4 -60 -10 -60
-5 0 -10 21 -10 46 0 40 -2 45 -15 34 -8 -7 -15 -8 -15 -2 0 7 36 39 48 41 1
1 2 -26 2 -59z m-110 20 c0 -5 -5 -10 -11 -10 -5 0 -7 5 -4 10 3 6 8 10 11 10
2 0 4 -4 4 -10z m74 -35 c-4 -8 -8 -15 -10 -15 -2 0 -4 7 -4 15 0 8 4 15 10
15 5 0 7 -7 4 -15z m106 -5 c0 -13 -7 -20 -20 -20 -13 0 -20 7 -20 20 0 13 7
20 20 20 13 0 20 -7 20 -20z m-360 -255 c0 -8 -9 -15 -20 -15 -11 0 -20 7 -20
15 0 8 9 15 20 15 11 0 20 -7 20 -15z m720 0 c0 -10 -10 -15 -30 -15 -20 0
-30 5 -30 15 0 10 10 15 30 15 20 0 30 -5 30 -15z m-450 -20 c0 -8 -4 -15 -9
-15 -13 0 -22 16 -14 24 11 11 23 6 23 -9z m360 -91 c0 -8 -10 -14 -25 -14
-18 0 -25 5 -25 19 0 14 6 17 25 13 14 -2 25 -11 25 -18z m180 6 c0 -16 -7
-20 -30 -20 -23 0 -30 4 -30 20 0 16 7 20 30 20 23 0 30 -4 30 -20z m-90 -5
c0 -10 -10 -15 -30 -15 -20 0 -30 5 -30 15 0 10 10 15 30 15 20 0 30 -5 30
-15z"/>
<path d="M1362 1533 l-2 -43 38 0 38 0 -6 43 -5 42 -3 -37 c-3 -32 -7 -38 -27
-38 -20 0 -24 6 -28 38 l-4 37 -1 -42z"/>
<path d="M1452 1533 l-2 -43 38 0 38 0 -6 43 -5 42 -3 -37 c-3 -32 -7 -38 -27
-38 -20 0 -24 6 -28 38 l-4 37 -1 -42z"/>
<path d="M1542 1533 c-2 -43 -2 -43 33 -43 35 0 35 0 33 43 l-1 42 -4 -37 c-4
-32 -8 -38 -28 -38 -20 0 -24 6 -28 38 l-4 37 -1 -42z"/>
<path d="M1622 1533 l-2 -43 40 0 40 0 -2 43 -1 42 -4 -37 c-4 -34 -7 -38 -33
-38 -26 0 -29 4 -33 38 l-4 37 -1 -42z"/>
<path d="M1712 1533 l-2 -43 40 0 40 0 -2 43 -1 42 -4 -37 c-4 -34 -7 -38 -33
-38 -26 0 -29 4 -33 38 l-4 37 -1 -42z"/>
<path d="M1802 1533 l-2 -43 40 0 40 0 -1 43 -2 42 -6 -35 c-5 -29 -11 -36
-33 -38 -24 -3 -27 0 -31 35 l-4 38 -1 -42z"/>
<path d="M1892 1533 l-2 -43 40 0 40 0 -2 43 -1 42 -4 -37 c-4 -34 -7 -38 -33
-38 -26 0 -29 4 -33 38 l-4 37 -1 -42z"/>
<path d="M1982 1533 l-2 -43 40 0 40 0 -2 43 -1 42 -4 -37 c-4 -34 -7 -38 -33
-38 -26 0 -29 4 -33 38 l-4 37 -1 -42z"/>
<path d="M2072 1533 l-2 -43 40 0 40 0 -2 43 -1 42 -4 -37 c-4 -34 -7 -38 -33
-38 -26 0 -29 4 -33 38 l-4 37 -1 -42z"/>
<path d="M2162 1533 c-2 -43 -2 -43 33 -43 35 0 35 0 33 43 l-1 42 -4 -37 c-4
-32 -8 -38 -28 -38 -20 0 -24 6 -28 38 l-4 37 -1 -42z"/>
<path d="M2310 1536 c0 -33 -2 -35 -37 -39 l-38 -4 43 -1 42 -2 0 40 c0 22 -2
40 -5 40 -3 0 -5 -15 -5 -34z"/>
<path d="M2330 1530 c0 -40 0 -40 40 -40 l40 0 -2 43 -1 42 -4 -37 c-4 -33 -8
-38 -29 -38 -21 0 -24 5 -24 35 0 19 -4 35 -10 35 -5 0 -10 -18 -10 -40z"/>
<path d="M2490 1536 c0 -33 -2 -35 -37 -39 l-38 -4 43 -1 42 -2 0 40 c0 22 -2
40 -5 40 -3 0 -5 -15 -5 -34z"/>
<path d="M2512 1533 l-2 -43 40 0 40 0 -2 43 -1 42 -4 -37 c-4 -34 -7 -38 -33
-38 -26 0 -29 4 -33 38 l-4 37 -1 -42z"/>
<path d="M2602 1533 l-2 -43 40 0 40 0 -2 43 -1 42 -4 -37 c-4 -34 -7 -38 -33
-38 -26 0 -29 4 -33 38 l-4 37 -1 -42z"/>
<path d="M2692 1540 c0 -19 2 -27 5 -17 2 9 2 25 0 35 -3 9 -5 1 -5 -18z"/>
<path d="M2750 1536 c0 -32 -3 -35 -32 -39 -29 -3 -27 -4 10 -5 l42 -2 0 40
c0 22 -4 40 -10 40 -5 0 -10 -15 -10 -34z"/>
<path d="M2780 1530 c0 -39 1 -40 35 -40 35 0 35 0 33 43 l-1 42 -4 -37 c-3
-30 -9 -38 -24 -38 -15 0 -19 7 -19 35 0 19 -4 35 -10 35 -5 0 -10 -18 -10
-40z"/>
<path d="M3 1445 c0 -22 2 -30 4 -17 2 12 2 30 0 40 -3 9 -5 -1 -4 -23z"/>
<path d="M30 1445 c0 -33 2 -35 35 -35 33 0 35 2 35 35 0 33 -2 35 -35 35 -33
0 -35 -2 -35 -35z m60 0 c0 -20 -5 -25 -25 -25 -33 0 -35 37 -2 43 12 2 23 5
25 6 1 0 2 -10 2 -24z"/>
<path d="M120 1445 c0 -33 2 -35 35 -35 33 0 35 2 35 35 0 33 -2 35 -35 35
-33 0 -35 -2 -35 -35z m60 0 c0 -20 -5 -25 -25 -25 -33 0 -35 37 -2 43 12 2
23 5 25 6 1 0 2 -10 2 -24z"/>
<path d="M210 1445 c0 -33 2 -35 35 -35 33 0 35 2 35 35 0 33 -2 35 -35 35
-33 0 -35 -2 -35 -35z m60 0 c0 -20 -5 -25 -25 -25 -33 0 -35 37 -2 43 12 2
23 5 25 6 1 0 2 -10 2 -24z"/>
<path d="M300 1445 c0 -32 2 -35 30 -35 28 0 30 3 30 35 0 32 -2 35 -30 35
-28 0 -30 -3 -30 -35z m50 -5 c0 -13 -7 -20 -20 -20 -13 0 -20 7 -20 20 0 13
7 20 20 20 13 0 20 -7 20 -20z"/>
<path d="M382 1448 c-2 -37 -1 -38 33 -38 33 0 35 2 35 35 0 31 -3 35 -25 35
-14 0 -25 -4 -25 -10 0 -5 9 -10 20 -10 13 0 20 -7 20 -20 0 -15 -7 -20 -24
-20 -20 0 -25 6 -29 33 -4 31 -4 31 -5 -5z"/>
<path d="M470 1443 c0 -31 2 -33 35 -33 33 0 35 2 35 35 0 34 -1 36 -35 33
-32 -2 -35 -4 -35 -35z m60 -3 c0 -15 -7 -20 -25 -20 -18 0 -25 5 -25 20 0 15
7 20 25 20 18 0 25 -5 25 -20z"/>
<path d="M562 1448 c-2 -37 -1 -38 33 -38 33 0 35 2 35 35 0 31 -3 35 -25 35
-14 0 -25 -4 -25 -10 0 -5 9 -10 20 -10 13 0 20 -7 20 -20 0 -15 -7 -20 -24
-20 -20 0 -25 6 -29 33 -4 31 -4 31 -5 -5z"/>
<path d="M650 1443 c0 -31 2 -33 35 -33 33 0 35 2 35 35 0 34 -1 36 -35 33
-32 -2 -35 -4 -35 -35z m60 -3 c0 -15 -7 -20 -25 -20 -18 0 -25 5 -25 20 0 15
7 20 25 20 18 0 25 -5 25 -20z"/>
<path d="M740 1445 c0 -33 2 -35 35 -35 33 0 35 2 35 35 0 33 -2 35 -35 35
-33 0 -35 -2 -35 -35z m60 -5 c0 -15 -7 -20 -25 -20 -18 0 -25 5 -25 20 0 15
7 20 25 20 18 0 25 -5 25 -20z"/>
<path d="M830 1445 c0 -33 2 -35 35 -35 33 0 35 2 35 35 0 33 -2 35 -35 35
-33 0 -35 -2 -35 -35z m60 -5 c0 -15 -7 -20 -25 -20 -18 0 -25 5 -25 20 0 15
7 20 25 20 18 0 25 -5 25 -20z"/>
<path d="M920 1445 c0 -33 2 -35 35 -35 34 0 46 12 25 25 -5 3 -10 1 -10 -4 0
-6 -9 -11 -20 -11 -30 0 -25 34 8 47 l27 11 -32 1 c-31 1 -33 -1 -33 -34z"/>
<path d="M1000 1445 c0 -29 4 -35 22 -35 21 0 21 1 3 14 -12 8 -16 20 -12 35
3 11 1 21 -4 21 -5 0 -9 -16 -9 -35z"/>
<path d="M1360 1445 c0 -34 1 -35 38 -35 38 0 38 0 34 35 -4 32 -7 35 -38 35
-32 0 -34 -2 -34 -35z m60 -6 c0 -14 -7 -19 -25 -19 -20 0 -25 5 -25 24 0 19
4 22 25 18 16 -3 25 -11 25 -23z"/>
<path d="M1450 1445 c0 -33 2 -35 35 -35 33 0 35 2 35 35 0 33 -2 35 -35 35
-33 0 -35 -2 -35 -35z m60 -2 c0 -18 -6 -23 -25 -23 -19 0 -25 5 -25 23 0 17
6 22 25 22 19 0 25 -5 25 -22z"/>
<path d="M1540 1445 c0 -33 2 -35 35 -35 33 0 35 2 35 35 0 33 -2 35 -35 35
-33 0 -35 -2 -35 -35z m60 -6 c0 -14 -7 -19 -25 -19 -20 0 -25 5 -25 24 0 19
4 22 25 18 16 -3 25 -11 25 -23z"/>
<path d="M1620 1445 c0 -34 1 -35 40 -35 39 0 40 1 40 35 0 34 -1 35 -40 35
-39 0 -40 -1 -40 -35z m70 -5 c0 -16 -7 -20 -30 -20 -23 0 -30 4 -30 20 0 16
7 20 30 20 23 0 30 -4 30 -20z"/>
<path d="M1710 1445 c0 -34 1 -35 40 -35 39 0 40 1 40 35 0 34 -1 35 -40 35
-39 0 -40 -1 -40 -35z m68 -3 c3 -19 -2 -22 -27 -22 -24 0 -31 4 -31 19 0 35
53 38 58 3z"/>
<path d="M1800 1445 c0 -34 1 -35 40 -35 39 0 40 1 40 35 0 34 -1 35 -40 35
-39 0 -40 -1 -40 -35z m70 -5 c0 -16 -7 -20 -30 -20 -23 0 -30 4 -30 20 0 16
7 20 30 20 23 0 30 -4 30 -20z"/>
<path d="M1890 1445 c0 -34 1 -35 40 -35 39 0 40 1 40 35 0 34 -1 35 -40 35
-39 0 -40 -1 -40 -35z m70 -5 c0 -16 -7 -20 -30 -20 -23 0 -30 4 -30 20 0 16
7 20 30 20 23 0 30 -4 30 -20z"/>
<path d="M1980 1445 c0 -34 1 -35 40 -35 39 0 40 1 40 35 0 34 -1 35 -40 35
-39 0 -40 -1 -40 -35z m70 -5 c0 -16 -7 -20 -30 -20 -23 0 -30 4 -30 20 0 16
7 20 30 20 23 0 30 -4 30 -20z"/>
<path d="M2070 1445 c0 -34 1 -35 40 -35 39 0 40 1 40 35 0 34 -1 35 -40 35
-39 0 -40 -1 -40 -35z m70 0 c0 -21 -5 -25 -30 -25 -41 0 -43 37 -2 43 15 2
28 5 30 6 1 0 2 -10 2 -24z"/>
<path d="M2160 1445 c0 -33 2 -35 35 -35 33 0 35 2 35 35 0 33 -2 35 -35 35
-33 0 -35 -2 -35 -35z m60 -5 c0 -15 -7 -20 -25 -20 -18 0 -25 5 -25 20 0 15
7 20 25 20 18 0 25 -5 25 -20z"/>
<path d="M2240 1469 c0 -7 14 -10 35 -7 31 3 35 1 35 -18 0 -19 -7 -23 -37
-27 l-38 -4 43 -1 c42 -2 42 -2 42 33 0 34 -1 35 -40 35 -23 0 -40 -5 -40 -11z"/>
<path d="M2330 1445 c0 -34 1 -35 40 -35 39 0 40 1 40 35 0 34 -1 35 -40 35
-39 0 -40 -1 -40 -35z m70 -6 c0 -14 -7 -19 -25 -19 -20 0 -25 5 -25 24 0 19
4 22 25 18 16 -3 25 -11 25 -23z"/>
<path d="M2420 1470 c0 -5 3 -9 8 -9 4 1 19 1 35 0 20 -1 27 -6 27 -22 0 -18
-5 -21 -35 -17 -19 2 -35 0 -35 -4 0 -4 18 -8 40 -8 39 0 40 1 40 35 0 34 -1
35 -40 35 -22 0 -40 -4 -40 -10z"/>
<path d="M2510 1470 c0 -5 16 -10 35 -10 28 0 35 -4 35 -19 0 -15 -8 -21 -37
-24 l-38 -4 43 -1 c42 -2 42 -2 42 33 0 34 -1 35 -40 35 -22 0 -40 -4 -40 -10z"/>
<path d="M2600 1470 c0 -5 16 -10 35 -10 28 0 35 -4 35 -19 0 -15 -8 -21 -37
-24 l-38 -4 43 -1 c42 -2 42 -2 42 33 0 34 -1 35 -40 35 -22 0 -40 -4 -40 -10z"/>
<path d="M2691 1453 c1 -17 3 -21 6 -10 7 25 63 24 63 -2 0 -15 -8 -21 -37
-24 l-38 -4 43 -1 c42 -2 42 -2 42 33 0 34 -1 35 -40 35 -37 0 -40 -2 -39 -27z"/>
<path d="M2780 1445 c0 -33 2 -35 35 -35 33 0 35 2 35 35 0 33 -2 35 -35 35
-33 0 -35 -2 -35 -35z m60 -2 c0 -18 -6 -23 -25 -23 -25 0 -29 7 -20 32 9 24
45 17 45 -9z"/>
<path d="M1056 1425 c-3 -9 0 -15 9 -15 16 0 20 16 6 24 -5 3 -11 -1 -15 -9z"/>
<path d="M1000 1358 c0 -37 1 -38 38 -38 36 0 37 1 37 34 0 32 -2 35 -37 38
-38 4 -38 3 -38 -34z m60 -3 c0 -20 -5 -25 -25 -25 -20 0 -25 5 -25 25 0 20 5
25 25 25 20 0 25 -5 25 -25z"/>
<path d="M1452 1363 c-2 -43 -2 -43 33 -43 33 0 35 2 35 35 0 32 -2 35 -27 34
-24 -2 -25 -2 -5 -6 33 -7 31 -53 -2 -53 -21 0 -25 5 -29 38 l-4 37 -1 -42z"/>
<path d="M2310 1366 c0 -33 -2 -35 -37 -39 l-38 -4 43 -1 42 -2 0 40 c0 22 -2
40 -5 40 -3 0 -5 -15 -5 -34z"/>
<path d="M3 1355 c0 -22 2 -30 4 -17 2 12 2 30 0 40 -3 9 -5 -1 -4 -23z"/>
<path d="M30 1355 c0 -33 2 -35 35 -35 34 0 35 1 33 38 -1 36 -1 36 -5 5 -4
-27 -9 -33 -29 -33 -33 0 -35 46 -1 53 19 4 18 4 -5 6 -26 1 -28 -2 -28 -34z"/>
<path d="M120 1355 c0 -33 2 -35 35 -35 33 0 35 2 35 35 0 33 -2 35 -35 35
-33 0 -35 -2 -35 -35z m60 0 c0 -20 -5 -25 -25 -25 -20 0 -25 5 -25 25 0 20 5
25 25 25 20 0 25 -5 25 -25z"/>
<path d="M211 1363 c2 -24 2 -25 6 -5 7 33 53 31 53 -2 0 -20 -6 -25 -32 -29
-32 -4 -32 -4 5 -5 36 -2 37 -1 37 33 0 33 -2 35 -35 35 -32 0 -35 -2 -34 -27z"/>
<path d="M301 1363 c2 -24 2 -25 6 -5 6 32 43 30 43 -2 0 -19 -6 -26 -27 -29
-26 -4 -26 -4 5 -6 30 -1 32 1 32 34 0 32 -2 35 -30 35 -26 0 -30 -3 -29 -27z"/>
<path d="M382 1358 c-2 -37 -1 -38 33 -38 33 0 35 2 35 35 0 32 -2 35 -27 34
-24 -2 -25 -2 -5 -6 33 -7 31 -53 -2 -53 -20 0 -25 6 -29 33 -4 31 -4 31 -5
-5z"/>
<path d="M470 1355 c0 -33 2 -35 35 -35 33 0 35 2 35 35 0 33 -2 35 -35 35
-33 0 -35 -2 -35 -35z m60 0 c0 -20 -5 -25 -25 -25 -20 0 -25 5 -25 25 0 20 5
25 25 25 20 0 25 -5 25 -25z"/>
<path d="M562 1358 c-2 -37 -1 -38 33 -38 33 0 35 2 35 35 0 32 -2 35 -27 34
-24 -2 -25 -2 -5 -6 33 -7 31 -53 -2 -53 -20 0 -25 6 -29 33 -4 31 -4 31 -5
-5z"/>
<path d="M650 1355 c0 -33 2 -35 35 -35 33 0 35 2 35 35 0 33 -2 35 -35 35
-33 0 -35 -2 -35 -35z m60 0 c0 -20 -5 -25 -25 -25 -20 0 -25 5 -25 25 0 20 5
25 25 25 20 0 25 -5 25 -25z"/>
<path d="M740 1355 c0 -33 2 -35 35 -35 33 0 35 2 35 35 0 33 -2 35 -35 35
-33 0 -35 -2 -35 -35z m60 0 c0 -20 -5 -25 -25 -25 -20 0 -25 5 -25 25 0 20 5
25 25 25 20 0 25 -5 25 -25z"/>
<path d="M832 1358 c-2 -37 -1 -38 33 -38 33 0 35 2 35 35 0 32 -2 35 -27 34
-24 -2 -25 -2 -5 -6 33 -7 31 -53 -2 -53 -20 0 -25 6 -29 33 -4 31 -4 31 -5
-5z"/>
<path d="M920 1355 c0 -33 2 -35 33 -35 30 0 32 2 32 35 0 33 -2 35 -32 35
-31 0 -33 -2 -33 -35z m50 0 c0 -18 -5 -25 -20 -25 -15 0 -20 7 -20 25 0 18 5
25 20 25 15 0 20 -7 20 -25z"/>
<path d="M1542 1358 c-2 -37 -1 -38 33 -38 33 0 35 2 35 35 0 32 -2 35 -27 34
-24 -2 -25 -2 -5 -6 33 -7 31 -53 -2 -53 -20 0 -25 6 -29 33 -4 31 -4 31 -5
-5z"/>
<path d="M1620 1355 c0 -34 1 -35 40 -35 39 0 40 1 40 35 0 27 -4 35 -17 34
-11 0 -13 -3 -5 -6 6 -2 12 -16 12 -29 0 -20 -5 -24 -30 -24 -25 0 -30 4 -30
24 0 15 7 26 18 29 13 4 11 5 -5 6 -20 1 -23 -4 -23 -34z"/>
<path d="M1710 1355 c0 -34 1 -35 40 -35 39 0 40 1 40 35 0 34 -1 35 -40 35
-39 0 -40 -1 -40 -35z m70 0 c0 -21 -5 -25 -30 -25 -25 0 -30 4 -30 25 0 21 5
25 30 25 25 0 30 -4 30 -25z"/>
<path d="M1800 1355 c0 -34 1 -35 40 -35 39 0 40 1 40 35 0 34 -1 35 -40 35
-39 0 -40 -1 -40 -35z m70 0 c0 -21 -5 -25 -30 -25 -25 0 -30 4 -30 25 0 21 5
25 30 25 25 0 30 -4 30 -25z"/>
<path d="M1890 1355 c0 -34 1 -35 40 -35 39 0 40 1 40 35 0 34 -1 35 -40 35
-39 0 -40 -1 -40 -35z m70 0 c0 -21 -5 -25 -30 -25 -25 0 -30 4 -30 25 0 21 5
25 30 25 25 0 30 -4 30 -25z"/>
<path d="M1980 1355 c0 -34 1 -35 40 -35 39 0 40 1 40 35 0 34 -1 35 -40 35
-39 0 -40 -1 -40 -35z m70 0 c0 -21 -5 -25 -30 -25 -25 0 -30 4 -30 25 0 21 5
25 30 25 25 0 30 -4 30 -25z"/>
<path d="M2070 1355 c0 -34 1 -35 40 -35 39 0 40 1 40 35 0 34 -1 35 -40 35
-39 0 -40 -1 -40 -35z m70 0 c0 -21 -5 -25 -30 -25 -25 0 -30 4 -30 25 0 21 5
25 30 25 25 0 30 -4 30 -25z"/>
<path d="M2160 1355 c0 -33 2 -35 35 -35 33 0 35 2 35 35 0 30 -3 35 -22 34
-17 -1 -19 -2 -5 -6 10 -3 17 -14 17 -29 0 -19 -5 -24 -26 -24 -23 0 -26 3
-22 30 3 17 1 30 -4 30 -4 0 -8 -16 -8 -35z"/>
<path d="M2253 1383 c9 -2 25 -2 35 0 9 3 1 5 -18 5 -19 0 -27 -2 -17 -5z"/>
<path d="M2330 1355 c0 -34 1 -35 40 -35 39 0 40 1 40 35 0 34 -1 35 -40 35
-39 0 -40 -1 -40 -35z m70 0 c0 -20 -5 -25 -25 -25 -20 0 -25 5 -25 25 0 20 5
25 25 25 20 0 25 -5 25 -25z"/>
<path d="M2453 1383 c31 -4 37 -8 37 -28 0 -20 -6 -24 -37 -28 l-38 -4 43 -1
c42 -2 42 -2 42 33 0 35 0 35 -42 33 l-43 -1 38 -4z"/>
<path d="M2510 1355 c0 -34 1 -35 40 -35 39 0 40 1 40 35 0 30 -3 35 -22 34
-17 -1 -19 -2 -5 -6 10 -3 17 -14 17 -29 0 -20 -5 -24 -30 -24 -25 0 -30 4
-30 24 0 13 6 27 13 29 7 3 5 6 -5 6 -14 1 -18 -7 -18 -34z"/>
<path d="M2600 1382 c0 -4 16 -6 35 -4 32 4 35 2 35 -22 0 -22 -4 -26 -29 -26
-20 0 -31 6 -34 18 -4 13 -5 11 -6 -5 -1 -20 4 -23 39 -23 39 0 40 1 40 35 0
34 -1 35 -40 35 -22 0 -40 -4 -40 -8z"/>
<path d="M2723 1383 c31 -4 37 -8 37 -28 0 -20 -6 -24 -37 -28 l-38 -4 43 -1
c42 -2 42 -2 42 33 0 35 0 35 -42 33 l-43 -1 38 -4z"/>
<path d="M2780 1355 c0 -33 2 -35 35 -35 34 0 35 1 33 38 -1 36 -1 36 -5 5 -4
-27 -9 -33 -29 -33 -33 0 -35 46 -1 53 19 4 18 4 -5 6 -26 1 -28 -2 -28 -34z"/>
<path d="M1150 1354 c0 -8 5 -12 10 -9 6 3 10 10 10 16 0 5 -4 9 -10 9 -5 0
-10 -7 -10 -16z"/>
<path d="M1240 1355 c0 -8 2 -15 4 -15 2 0 6 7 10 15 3 8 1 15 -4 15 -6 0 -10
-7 -10 -15z"/>
<path d="M2691 1354 c0 -11 3 -14 6 -6 3 7 2 16 -1 19 -3 4 -6 -2 -5 -13z"/>
<path d="M1452 1273 l-2 -43 43 2 42 1 -37 4 c-34 4 -37 7 -41 41 l-4 37 -1
-42z"/>
<path d="M3 1265 c0 -22 2 -30 4 -17 2 12 2 30 0 40 -3 9 -5 -1 -4 -23z"/>
<path d="M30 1265 c0 -33 2 -35 35 -35 34 0 35 1 33 38 -1 36 -1 36 -5 5 -4
-27 -9 -33 -29 -33 -33 0 -35 46 -1 53 19 4 18 4 -5 6 -26 1 -28 -2 -28 -34z"/>
<path d="M120 1265 c0 -33 2 -35 35 -35 34 0 35 1 33 38 -1 36 -1 36 -5 5 -4
-27 -9 -33 -29 -33 -33 0 -35 46 -1 53 19 4 18 4 -5 6 -26 1 -28 -2 -28 -34z"/>
<path d="M212 1263 c1 -37 1 -37 5 -6 3 23 10 33 26 36 18 4 17 5 -5 6 -26 1
-28 -2 -26 -36z"/>
<path d="M273 1265 c0 -22 2 -30 4 -17 2 12 2 30 0 40 -3 9 -5 -1 -4 -23z"/>
<path d="M323 1293 c21 -3 27 -10 27 -28 0 -18 -6 -25 -27 -28 -26 -4 -26 -4
5 -6 30 -1 32 1 32 34 0 33 -2 35 -32 34 -31 -2 -31 -2 -5 -6z"/>
<path d="M383 1265 c0 -22 2 -30 4 -17 2 12 2 30 0 40 -3 9 -5 -1 -4 -23z"/>
<path d="M418 1293 c15 -3 22 -11 22 -28 0 -17 -7 -25 -22 -28 -20 -4 -19 -4
5 -6 25 -1 27 2 27 34 0 32 -2 35 -27 34 -24 -2 -25 -2 -5 -6z"/>
<path d="M470 1265 c0 -19 4 -35 8 -35 5 0 7 13 4 29 -3 22 0 30 15 34 15 4
14 5 -4 6 -20 1 -23 -4 -23 -34z"/>
<path d="M528 1274 c3 -16 -1 -30 -9 -35 -11 -7 -10 -9 4 -9 13 0 17 8 17 35
0 19 -4 35 -9 35 -4 0 -6 -12 -3 -26z"/>
<path d="M563 1265 c0 -22 2 -30 4 -17 2 12 2 30 0 40 -3 9 -5 -1 -4 -23z"/>
<path d="M598 1293 c24 -5 32 -47 10 -56 -8 -3 -6 -6 5 -6 13 -1 17 7 17 34 0
32 -2 35 -27 34 -24 -2 -25 -2 -5 -6z"/>
<path d="M650 1265 c0 -32 2 -35 28 -34 23 2 24 2 5 6 -34 7 -32 53 1 53 20 0
25 -6 29 -32 4 -32 4 -32 5 5 2 36 1 37 -33 37 -33 0 -35 -2 -35 -35z"/>
<path d="M740 1265 c0 -32 2 -35 28 -34 23 2 24 2 5 6 -34 7 -32 53 1 53 20 0
25 -6 29 -32 4 -32 4 -32 5 5 2 36 1 37 -33 37 -33 0 -35 -2 -35 -35z"/>
<path d="M830 1265 c0 -32 2 -35 28 -34 23 2 24 2 5 6 -34 7 -32 53 1 53 20 0
25 -6 29 -32 4 -32 4 -32 5 5 2 36 1 37 -33 37 -33 0 -35 -2 -35 -35z"/>
<path d="M920 1265 c0 -33 2 -35 33 -35 30 0 32 2 33 35 0 33 -1 35 -33 35
-31 0 -33 -2 -33 -35z m50 0 c0 -18 -5 -25 -20 -25 -15 0 -20 7 -20 25 0 18 5
25 20 25 15 0 20 -7 20 -25z"/>
<path d="M1000 1265 c0 -34 1 -35 38 -35 36 0 37 1 37 35 0 34 -1 35 -37 35
-37 0 -38 -1 -38 -35z m60 0 c0 -20 -5 -25 -25 -25 -20 0 -25 5 -25 25 0 20 5
25 25 25 20 0 25 -5 25 -25z"/>
<path d="M1091 1273 c1 -23 2 -24 6 -6 2 12 12 24 21 26 12 3 10 5 -5 6 -19 1
-23 -4 -22 -26z"/>
<path d="M1157 1280 c3 -11 7 -20 9 -20 2 0 4 9 4 20 0 11 -4 20 -9 20 -5 0
-7 -9 -4 -20z"/>
<path d="M1210 1275 c0 -13 -8 -28 -17 -34 -16 -9 -16 -10 3 -8 15 1 21 9 22
34 2 18 0 33 -3 33 -3 0 -5 -11 -5 -25z"/>
<path d="M1418 1293 c7 -3 16 -2 19 1 4 3 -2 6 -13 5 -11 0 -14 -3 -6 -6z"/>
<path d="M1487 1293 c13 -2 24 -13 26 -26 4 -18 5 -17 6 6 1 23 -3 27 -26 26
-23 -1 -24 -2 -6 -6z"/>
<path d="M1542 1268 c-2 -37 -1 -38 33 -38 33 0 35 2 35 35 0 32 -2 35 -27 34
-24 -2 -25 -2 -5 -6 33 -7 31 -53 -2 -53 -20 0 -25 6 -29 33 -4 31 -4 31 -5
-5z"/>
<path d="M1620 1265 c0 -34 1 -35 40 -35 39 0 40 1 40 35 0 34 -1 35 -40 35
-39 0 -40 -1 -40 -35z m70 0 c0 -21 -5 -25 -30 -25 -25 0 -30 4 -30 25 0 21 5
25 30 25 25 0 30 -4 30 -25z"/>
<path d="M1710 1265 c0 -34 1 -35 40 -35 39 0 40 1 40 35 0 34 -1 35 -40 35
-39 0 -40 -1 -40 -35z m70 0 c0 -21 -5 -25 -30 -25 -25 0 -30 4 -30 25 0 21 5
25 30 25 25 0 30 -4 30 -25z"/>
<path d="M1800 1265 c0 -34 1 -35 40 -35 39 0 40 1 40 35 0 34 -1 35 -40 35
-39 0 -40 -1 -40 -35z m70 0 c0 -21 -5 -25 -30 -25 -25 0 -30 4 -30 25 0 21 5
25 30 25 25 0 30 -4 30 -25z"/>
<path d="M1890 1265 c0 -34 1 -35 40 -35 39 0 40 1 40 35 0 34 -1 35 -40 35
-39 0 -40 -1 -40 -35z m70 0 c0 -21 -5 -25 -30 -25 -25 0 -30 4 -30 25 0 21 5
25 30 25 25 0 30 -4 30 -25z"/>
<path d="M1980 1265 c0 -33 2 -35 33 -34 30 2 30 2 5 6 -22 3 -28 10 -28 29 0
20 5 24 29 24 26 0 30 -4 34 -32 4 -32 4 -32 5 5 2 37 2 37 -38 37 -39 0 -40
-1 -40 -35z"/>
<path d="M2070 1265 c0 -34 1 -35 40 -35 39 0 40 1 40 35 0 34 -1 35 -40 35
-39 0 -40 -1 -40 -35z m70 0 c0 -21 -5 -25 -30 -25 -25 0 -30 4 -30 25 0 21 5
25 30 25 25 0 30 -4 30 -25z"/>
<path d="M2160 1265 c0 -33 2 -35 35 -35 33 0 35 2 35 35 0 33 -2 35 -35 35
-33 0 -35 -2 -35 -35z m60 0 c0 -20 -5 -25 -25 -25 -20 0 -25 5 -25 25 0 20 5
25 25 25 20 0 25 -5 25 -25z"/>
<path d="M2253 1293 c9 -2 25 -2 35 0 9 3 1 5 -18 5 -19 0 -27 -2 -17 -5z"/>
<path d="M2313 1265 c0 -22 2 -30 4 -17 2 12 2 30 0 40 -3 9 -5 -1 -4 -23z"/>
<path d="M2363 1293 c32 -4 37 -8 37 -30 0 -23 -3 -25 -35 -21 -19 2 -35 0
-35 -4 0 -4 18 -8 40 -8 39 0 40 1 40 35 0 35 0 35 -42 33 l-43 -1 38 -4z"/>
<path d="M2453 1293 c32 -4 37 -8 37 -30 0 -23 -3 -25 -35 -21 -19 2 -35 0
-35 -4 0 -4 18 -8 40 -8 39 0 40 1 40 35 0 35 0 35 -42 33 l-43 -1 38 -4z"/>
<path d="M2543 1293 c32 -4 37 -8 37 -30 0 -23 -3 -25 -35 -21 -19 2 -35 0
-35 -4 0 -4 18 -8 40 -8 39 0 40 1 40 35 0 35 0 35 -42 33 l-43 -1 38 -4z"/>
<path d="M2633 1293 c32 -4 37 -8 37 -30 0 -23 -3 -25 -35 -21 -19 2 -35 0
-35 -4 0 -4 18 -8 40 -8 39 0 40 1 40 35 0 35 0 35 -42 33 l-43 -1 38 -4z"/>
<path d="M2720 1291 c26 -4 35 -11 35 -26 0 -15 -9 -22 -35 -26 l-35 -6 43 -2
c42 -1 42 -1 42 34 0 35 0 35 -42 34 l-43 -2 35 -6z"/>
<path d="M2780 1265 c0 -33 2 -35 35 -35 34 0 35 1 33 38 -1 36 -1 36 -5 5 -3
-25 -9 -33 -24 -33 -25 0 -27 46 -1 53 10 3 6 5 -10 6 -25 1 -28 -2 -28 -34z"/>
<path d="M1138 1233 c6 -2 18 -2 25 0 6 3 1 5 -13 5 -14 0 -19 -2 -12 -5z"/>
<path d="M1418 1233 c7 -3 16 -2 19 1 4 3 -2 6 -13 5 -11 0 -14 -3 -6 -6z"/>
<path d="M2253 1233 c9 -2 25 -2 35 0 9 3 1 5 -18 5 -19 0 -27 -2 -17 -5z"/>
<path d="M271 1204 c0 -11 3 -14 6 -6 3 7 2 16 -1 19 -3 4 -6 -2 -5 -13z"/>
<path d="M561 1204 c0 -11 3 -14 6 -6 3 7 2 16 -1 19 -3 4 -6 -2 -5 -13z"/>
<path d="M2311 1204 c0 -11 3 -14 6 -6 3 7 2 16 -1 19 -3 4 -6 -2 -5 -13z"/>
<path d="M2491 1204 c0 -11 3 -14 6 -6 3 7 2 16 -1 19 -3 4 -6 -2 -5 -13z"/>
<path d="M3 1175 c0 -22 2 -30 4 -17 2 12 2 30 0 40 -3 9 -5 -1 -4 -23z"/>
<path d="M30 1202 c0 -5 14 -7 30 -4 27 4 30 1 30 -22 0 -21 -5 -26 -24 -26
-15 0 -26 7 -29 18 -4 13 -5 11 -6 -5 -1 -20 4 -23 34 -23 33 0 35 2 35 35 0
33 -2 35 -35 35 -19 0 -35 -4 -35 -8z"/>
<path d="M120 1175 c0 -30 3 -35 23 -34 16 1 18 2 5 6 -11 3 -18 14 -18 29 0
19 5 24 26 24 23 0 26 -3 22 -30 -3 -16 -1 -30 4 -30 4 0 8 16 8 35 0 33 -2
35 -35 35 -33 0 -35 -2 -35 -35z"/>
<path d="M210 1201 c0 -4 11 -6 25 -3 14 2 25 6 25 8 0 2 -11 4 -25 4 -14 0
-25 -4 -25 -9z"/>
<path d="M320 1206 c0 -2 9 -6 20 -9 11 -3 20 -1 20 4 0 5 -9 9 -20 9 -11 0
-20 -2 -20 -4z"/>
<path d="M400 1206 c0 -2 11 -6 25 -8 14 -3 25 -1 25 3 0 5 -11 9 -25 9 -14 0
-25 -2 -25 -4z"/>
<path d="M470 1203 c0 -5 16 -8 35 -8 19 0 35 3 35 8 0 4 -16 7 -35 7 -19 0
-35 -3 -35 -7z"/>
<path d="M580 1206 c0 -2 11 -6 25 -8 14 -3 25 -1 25 3 0 5 -11 9 -25 9 -14 0
-25 -2 -25 -4z"/>
<path d="M650 1203 c0 -5 16 -8 35 -8 19 0 35 3 35 8 0 4 -16 7 -35 7 -19 0
-35 -3 -35 -7z"/>
<path d="M740 1200 c0 -5 7 -7 15 -4 8 4 15 8 15 10 0 2 -7 4 -15 4 -8 0 -15
-4 -15 -10z"/>
<path d="M780 1206 c0 -2 7 -6 15 -10 8 -3 15 -1 15 4 0 6 -7 10 -15 10 -8 0
-15 -2 -15 -4z"/>
<path d="M830 1201 c0 -5 9 -7 20 -4 11 3 20 7 20 9 0 2 -9 4 -20 4 -11 0 -20
-4 -20 -9z"/>
<path d="M1155 1200 c3 -5 8 -10 11 -10 2 0 4 5 4 10 0 6 -5 10 -11 10 -5 0
-7 -4 -4 -10z"/>
<path d="M1193 1203 c-16 -6 -17 -33 -2 -33 5 0 8 4 4 9 -3 6 3 14 12 20 18
11 8 14 -14 4z"/>
<path d="M1450 1198 c0 -4 16 -8 35 -8 19 0 35 2 35 4 0 2 -16 6 -35 8 -19 2
-35 0 -35 -4z"/>
<path d="M1710 1199 c0 -5 5 -7 10 -4 6 3 10 8 10 11 0 2 -4 4 -10 4 -5 0 -10
-5 -10 -11z"/>
<path d="M1740 1206 c0 -2 11 -6 25 -8 14 -3 25 -1 25 3 0 5 -11 9 -25 9 -14
0 -25 -2 -25 -4z"/>
<path d="M1800 1203 c0 -5 18 -8 40 -8 22 -1 40 3 40 7 0 4 -18 8 -40 8 -22 0
-40 -3 -40 -7z"/>
<path d="M1890 1203 c0 -5 18 -8 40 -8 22 0 40 3 40 8 0 4 -18 7 -40 7 -22 0
-40 -3 -40 -7z"/>
<path d="M1980 1201 c0 -4 11 -6 25 -3 14 2 25 6 25 8 0 2 -11 4 -25 4 -14 0
-25 -4 -25 -9z"/>
<path d="M2045 1200 c3 -5 8 -10 11 -10 2 0 4 5 4 10 0 6 -5 10 -11 10 -5 0
-7 -4 -4 -10z"/>
<path d="M2070 1203 c0 -5 18 -8 40 -8 22 0 40 3 40 8 0 4 -18 7 -40 7 -22 0
-40 -3 -40 -7z"/>
<path d="M2160 1203 c0 -5 16 -8 35 -8 19 0 35 3 35 8 0 4 -16 7 -35 7 -19 0
-35 -3 -35 -7z"/>
<path d="M2253 1203 c9 -2 25 -2 35 0 9 3 1 5 -18 5 -19 0 -27 -2 -17 -5z"/>
<path d="M2333 1204 c9 -10 77 -11 77 -1 0 4 -19 7 -42 7 -23 0 -38 -3 -35 -6z"/>
<path d="M2433 1203 c9 -2 25 -2 35 0 9 3 1 5 -18 5 -19 0 -27 -2 -17 -5z"/>
<path d="M2523 1203 c9 -2 23 -2 30 0 6 3 -1 5 -18 5 -16 0 -22 -2 -12 -5z"/>
<path d="M2633 1203 c32 -4 37 -8 37 -30 0 -23 -3 -25 -35 -21 -19 2 -35 0
-35 -4 0 -4 18 -8 40 -8 39 0 40 1 40 35 0 35 0 35 -42 33 l-43 -1 38 -4z"/>
<path d="M2723 1203 c31 -4 37 -8 37 -28 0 -20 -6 -24 -37 -28 l-38 -4 43 -1
c42 -2 42 -2 42 33 0 35 0 35 -42 33 l-43 -1 38 -4z"/>
<path d="M2780 1175 c0 -33 2 -35 35 -35 33 0 35 2 35 35 0 33 -2 35 -35 35
-33 0 -35 -2 -35 -35z m60 0 c0 -20 -5 -25 -25 -25 -20 0 -25 5 -25 25 0 20 5
25 25 25 20 0 25 -5 25 -25z"/>
<path d="M270 1170 c0 -5 -16 -10 -35 -10 -19 0 -35 -3 -35 -7 0 -5 18 -8 40
-8 31 0 40 4 40 18 0 9 -2 17 -5 17 -3 0 -5 -4 -5 -10z"/>
<path d="M350 1171 c0 -6 -15 -12 -32 -14 -29 -3 -28 -4 9 -5 34 -2 41 1 37
13 -7 17 -14 20 -14 6z"/>
<path d="M381 1165 c-1 -18 4 -20 38 -17 31 3 38 7 33 20 -4 10 -7 12 -10 4
-5 -16 -49 -15 -55 1 -3 6 -6 3 -6 -8z"/>
<path d="M471 1165 c-1 -16 5 -20 34 -20 29 0 35 4 34 20 0 11 -3 14 -6 8 -2
-7 -15 -13 -28 -13 -13 0 -26 6 -28 13 -3 6 -6 3 -6 -8z"/>
<path d="M561 1165 c-1 -18 4 -20 34 -17 25 3 35 9 34 21 0 10 -2 11 -6 4 -2
-7 -15 -13 -28 -13 -13 0 -26 6 -28 13 -3 6 -6 3 -6 -8z"/>
<path d="M650 1165 c0 -18 5 -20 38 -16 36 5 36 6 7 9 -16 2 -33 9 -37 15 -5
8 -8 4 -8 -8z"/>
<path d="M740 1165 c0 -18 5 -20 38 -16 36 5 36 6 7 9 -16 2 -33 9 -37 15 -5
8 -8 4 -8 -8z"/>
<path d="M1468 1173 c12 -2 30 -2 40 0 9 3 -1 5 -23 4 -22 0 -30 -2 -17 -4z"/>
<path d="M1801 1165 c-1 -17 5 -20 39 -20 34 0 40 3 39 20 0 11 -3 14 -6 8 -2
-7 -17 -13 -33 -13 -16 0 -31 6 -33 13 -3 6 -6 3 -6 -8z"/>
<path d="M1891 1165 c-1 -17 5 -20 39 -20 34 0 40 3 39 20 0 11 -3 14 -6 8 -2
-7 -17 -13 -33 -13 -16 0 -31 6 -33 13 -3 6 -6 3 -6 -8z"/>
<path d="M1981 1165 c-1 -17 5 -20 39 -20 34 0 40 3 39 20 0 11 -3 14 -6 8 -2
-7 -17 -13 -33 -13 -16 0 -31 6 -33 13 -3 6 -6 3 -6 -8z"/>
<path d="M2071 1165 c-1 -17 5 -20 39 -20 34 0 40 3 39 20 0 11 -3 14 -6 8 -2
-7 -17 -13 -33 -13 -16 0 -31 6 -33 13 -3 6 -6 3 -6 -8z"/>
<path d="M2161 1165 c-1 -16 5 -20 34 -20 29 0 35 4 34 20 0 11 -3 14 -6 8 -2
-7 -15 -13 -28 -13 -13 0 -26 6 -28 13 -3 6 -6 3 -6 -8z"/>
<path d="M2310 1170 c0 -5 -16 -10 -35 -10 -19 0 -35 -3 -35 -7 0 -5 18 -8 40
-8 31 0 40 4 40 18 0 9 -2 17 -5 17 -3 0 -5 -4 -5 -10z"/>
<path d="M2490 1170 c0 -5 -16 -10 -35 -10 -19 0 -35 -3 -35 -7 0 -5 18 -8 40
-8 31 0 40 4 40 18 0 9 -2 17 -5 17 -3 0 -5 -4 -5 -10z"/>
<path d="M2580 1170 c0 -5 -16 -10 -35 -10 -19 0 -35 -3 -35 -7 0 -5 18 -8 40
-8 31 0 40 4 40 18 0 9 -2 17 -5 17 -3 0 -5 -4 -5 -10z"/>
<path d="M2330 1153 c0 -5 18 -8 40 -8 22 0 40 3 40 8 0 4 -18 7 -40 7 -22 0
-40 -3 -40 -7z"/>
<path d="M865 1119 c-13 -4 -26 -4 -29 -1 -3 3 -6 -11 -6 -31 0 -36 1 -37 35
-37 32 0 35 2 35 30 0 17 5 30 10 30 6 0 10 -13 10 -30 0 -28 3 -30 36 -30 29
0 34 3 30 18 -3 9 -1 24 4 32 7 11 10 7 10 -17 0 -32 2 -33 40 -33 30 0 38 3
34 14 -3 8 -1 23 5 33 9 15 10 13 11 -14 0 -28 4 -33 23 -32 16 1 18 2 5 6
-28 7 -22 40 8 46 19 3 28 -1 34 -17 9 -20 9 -20 9 -1 1 14 8 21 20 21 11 0
18 -3 16 -6 -2 -3 1 -12 6 -20 8 -13 9 -12 7 2 -2 9 1 17 6 17 6 1 10 -35 11
-79 1 -72 0 -79 -19 -83 -13 -3 -9 -5 12 -6 l32 -1 0 95 0 94 -185 3 c-102 2
-197 0 -210 -3z m25 -39 c0 -15 -7 -20 -25 -20 -18 0 -25 5 -25 20 0 15 7 20
25 20 18 0 25 -5 25 -20z m80 0 c0 -13 -7 -20 -20 -20 -25 0 -27 27 -2 33 9 3
18 5 20 6 1 0 2 -8 2 -19z m90 0 c0 -15 -7 -20 -25 -20 -32 0 -34 27 -2 33 12
2 23 5 25 6 1 0 2 -8 2 -19z"/>
<path d="M3 1085 c0 -22 2 -30 4 -17 2 12 2 30 0 40 -3 9 -5 -1 -4 -23z"/>
<path d="M30 1085 c0 -33 2 -35 35 -35 33 0 35 2 35 35 0 33 -2 35 -35 35 -33
0 -35 -2 -35 -35z m60 0 c0 -20 -5 -25 -25 -25 -20 0 -25 5 -25 25 0 20 5 25
25 25 20 0 25 -5 25 -25z"/>
<path d="M120 1085 c0 -33 2 -35 33 -35 30 0 32 2 32 35 0 33 -2 35 -32 35
-31 0 -33 -2 -33 -35z m50 0 c0 -18 -5 -25 -20 -25 -15 0 -20 7 -20 25 0 18 5
25 20 25 15 0 20 -7 20 -25z"/>
<path d="M219 1115 c-1 -3 -2 -18 -3 -35 -1 -24 3 -30 19 -29 11 0 14 3 8 6
-22 8 -15 42 8 40 16 -1 19 -7 16 -24 -2 -13 0 -23 4 -23 5 0 9 16 9 35 0 19
-4 35 -10 35 -5 0 -10 -5 -10 -12 0 -9 -3 -9 -12 0 -12 12 -27 16 -29 7z"/>
<path d="M300 1107 c0 -10 8 -13 25 -9 20 3 25 0 25 -16 0 -15 -8 -22 -27 -25
-26 -4 -26 -4 5 -6 30 -1 32 1 32 32 0 29 -3 33 -30 35 -20 2 -30 -2 -30 -11z"/>
<path d="M380 1085 c0 -33 2 -35 35 -35 33 0 35 2 35 35 0 33 -2 35 -35 35
-33 0 -35 -2 -35 -35z m60 -5 c0 -15 -7 -20 -25 -20 -18 0 -25 5 -25 20 0 15
7 20 25 20 18 0 25 -5 25 -20z"/>
<path d="M470 1083 c0 -31 2 -33 35 -33 33 0 35 2 35 35 0 34 -1 36 -35 33
-32 -2 -35 -4 -35 -35z m60 -3 c0 -15 -7 -20 -25 -20 -18 0 -25 5 -25 20 0 15
7 20 25 20 18 0 25 -5 25 -20z"/>
<path d="M560 1083 c0 -31 2 -33 35 -33 33 0 35 2 35 35 0 34 -1 36 -35 33
-32 -2 -35 -4 -35 -35z m60 -3 c0 -15 -7 -20 -25 -20 -18 0 -25 5 -25 20 0 15
7 20 25 20 18 0 25 -5 25 -20z"/>
<path d="M650 1083 c0 -31 2 -33 35 -33 33 0 35 2 35 35 0 34 -1 36 -35 33
-32 -2 -35 -4 -35 -35z m60 -3 c0 -15 -7 -20 -25 -20 -18 0 -25 5 -25 20 0 15
7 20 25 20 18 0 25 -5 25 -20z"/>
<path d="M740 1083 c0 -31 2 -33 35 -33 33 0 35 2 35 33 0 30 -2 32 -35 33
-33 0 -35 -1 -35 -33z m60 -3 c0 -15 -7 -20 -25 -20 -18 0 -25 5 -25 20 0 15
7 20 25 20 18 0 25 -5 25 -20z"/>
<path d="M1800 1085 c0 -34 1 -35 40 -35 39 0 40 1 40 35 0 34 -1 35 -40 35
-39 0 -40 -1 -40 -35z m70 -5 c0 -16 -7 -20 -30 -20 -23 0 -30 4 -30 20 0 16
7 20 30 20 23 0 30 -4 30 -20z"/>
<path d="M1890 1083 c0 -32 1 -33 40 -33 39 0 40 1 40 33 0 32 -1 33 -40 33
-39 0 -40 -1 -40 -33z m70 -3 c0 -16 -7 -20 -30 -20 -23 0 -30 4 -30 20 0 16
7 20 30 20 23 0 30 -4 30 -20z"/>
<path d="M1980 1085 c0 -34 1 -35 40 -35 39 0 40 1 40 35 0 34 -1 35 -40 35
-39 0 -40 -1 -40 -35z m70 -5 c0 -16 -7 -20 -30 -20 -23 0 -30 4 -30 20 0 16
7 20 30 20 23 0 30 -4 30 -20z"/>
<path d="M2070 1085 c0 -35 0 -35 43 -33 l42 1 -37 4 c-30 3 -38 9 -38 24 0
26 56 27 63 2 3 -12 5 -9 6 8 1 23 -3 26 -39 27 -39 2 -40 1 -40 -33z"/>
<path d="M2160 1085 c0 -33 2 -35 35 -35 33 0 35 2 35 35 0 33 -2 35 -35 35
-33 0 -35 -2 -35 -35z m60 -5 c0 -15 -7 -20 -25 -20 -18 0 -25 5 -25 20 0 15
7 20 25 20 18 0 25 -5 25 -20z"/>
<path d="M2240 1110 c0 -5 16 -10 35 -10 28 0 35 -4 35 -19 0 -15 -8 -21 -37
-24 l-38 -4 43 -1 c42 -2 42 -2 42 33 0 34 -1 35 -40 35 -22 0 -40 -4 -40 -10z"/>
<path d="M2331 1098 c0 -13 3 -17 6 -10 2 6 18 12 34 12 22 0 29 -5 29 -19 0
-15 -8 -21 -37 -24 l-38 -4 43 -1 c42 -2 42 -2 42 33 0 34 -1 35 -40 35 -35 0
-40 -3 -39 -22z"/>
<path d="M2420 1110 c0 -5 16 -10 35 -10 28 0 35 -4 35 -19 0 -15 -8 -21 -37
-24 l-38 -4 43 -1 c42 -2 42 -2 42 33 0 34 -1 35 -40 35 -22 0 -40 -4 -40 -10z"/>
<path d="M2510 1108 c0 -4 14 -8 30 -8 23 0 30 -5 30 -19 0 -15 -8 -21 -32
-24 -32 -4 -32 -4 5 -5 36 -2 37 -1 37 32 0 32 -2 34 -35 33 -19 -1 -35 -5
-35 -9z"/>
<path d="M2610 1085 c0 -30 3 -35 23 -35 16 0 18 3 8 9 -8 5 -12 19 -9 35 4
18 1 26 -8 26 -9 0 -14 -12 -14 -35z"/>
<path d="M2665 1085 c0 -19 3 -35 8 -35 4 0 7 16 7 35 0 19 -3 35 -7 35 -5 0
-8 -16 -8 -35z"/>
<path d="M2735 1112 c11 -4 20 -16 20 -27 0 -15 -9 -22 -35 -26 l-35 -6 43 -2
c42 -1 42 -1 42 34 0 32 -3 35 -27 34 -23 -1 -25 -2 -8 -7z"/>
<path d="M2780 1085 c0 -33 2 -35 35 -35 33 0 35 2 35 35 0 33 -2 35 -35 35
-33 0 -35 -2 -35 -35z m60 0 c0 -18 -5 -25 -20 -25 -15 0 -20 7 -20 25 0 18 5
25 20 25 15 0 20 -7 20 -25z"/>
<path d="M1188 1053 c6 -2 18 -2 25 0 6 3 1 5 -13 5 -14 0 -19 -2 -12 -5z"/>
<path d="M3 995 c0 -22 2 -30 4 -17 2 12 2 30 0 40 -3 9 -5 -1 -4 -23z"/>
<path d="M30 995 c0 -33 2 -35 35 -35 33 0 35 2 35 35 0 33 -2 35 -35 35 -33
0 -35 -2 -35 -35z m60 0 c0 -20 -5 -25 -25 -25 -20 0 -25 5 -25 25 0 20 5 25
25 25 20 0 25 -5 25 -25z"/>
<path d="M120 995 c0 -33 2 -35 33 -35 30 0 32 2 32 35 0 33 -2 35 -32 35 -31
0 -33 -2 -33 -35z m50 0 c0 -18 -5 -25 -20 -25 -15 0 -20 7 -20 25 0 18 5 25
20 25 15 0 20 -7 20 -25z"/>
<path d="M214 995 c1 -19 4 -35 8 -35 5 0 8 13 8 29 0 16 6 32 13 34 6 3 3 6
-9 6 -17 1 -20 -5 -20 -34z"/>
<path d="M265 995 c0 -19 3 -35 8 -35 4 0 7 16 7 35 0 19 -3 35 -7 35 -5 0 -8
-16 -8 -35z"/>
<path d="M300 995 c0 -27 4 -35 18 -34 10 0 12 3 5 6 -7 2 -13 16 -13 29 0 18
5 24 21 24 18 0 21 -5 17 -30 -3 -16 -1 -30 4 -30 4 0 8 16 8 35 0 32 -2 35
-30 35 -28 0 -30 -3 -30 -35z"/>
<path d="M382 993 c1 -37 1 -37 5 -5 4 26 9 32 29 32 33 0 35 -46 2 -53 -20
-4 -19 -4 5 -6 25 -1 27 2 27 34 0 33 -2 35 -35 35 -34 0 -35 -1 -33 -37z"/>
<path d="M470 995 c0 -33 2 -35 35 -35 33 0 35 2 35 35 0 33 -2 35 -35 35 -33
0 -35 -2 -35 -35z m60 0 c0 -20 -5 -25 -25 -25 -20 0 -25 5 -25 25 0 20 5 25
25 25 20 0 25 -5 25 -25z"/>
<path d="M562 993 c1 -37 1 -37 5 -5 4 26 9 32 29 32 33 0 35 -46 2 -53 -20
-4 -19 -4 5 -6 25 -1 27 2 27 34 0 33 -2 35 -35 35 -34 0 -35 -1 -33 -37z"/>
<path d="M650 995 c0 -33 2 -35 35 -35 33 0 35 2 35 35 0 33 -2 35 -35 35 -33
0 -35 -2 -35 -35z m60 0 c0 -20 -5 -25 -25 -25 -20 0 -25 5 -25 25 0 20 5 25
25 25 20 0 25 -5 25 -25z"/>
<path d="M740 995 c0 -33 2 -35 35 -35 33 0 35 2 35 35 0 33 -2 35 -35 35 -33
0 -35 -2 -35 -35z m60 0 c0 -20 -5 -25 -25 -25 -20 0 -25 5 -25 25 0 20 5 25
25 25 20 0 25 -5 25 -25z"/>
<path d="M830 995 c0 -33 2 -35 35 -35 33 0 35 2 35 35 0 33 -2 35 -35 35 -33
0 -35 -2 -35 -35z m60 0 c0 -20 -5 -25 -25 -25 -20 0 -25 5 -25 25 0 20 5 25
25 25 20 0 25 -5 25 -25z"/>
<path d="M920 995 c0 -33 2 -35 33 -35 30 0 32 2 33 35 0 33 -1 35 -33 35 -31
0 -33 -2 -33 -35z m50 0 c0 -18 -5 -25 -20 -25 -15 0 -20 7 -20 25 0 18 5 25
20 25 15 0 20 -7 20 -25z"/>
<path d="M1000 995 c0 -35 0 -35 43 -33 l42 1 -37 4 c-33 4 -38 8 -38 29 0 33
47 35 52 2 3 -21 4 -21 9 5 6 26 4 27 -32 27 -38 0 -39 -1 -39 -35z"/>
<path d="M1090 995 c0 -27 4 -35 18 -34 10 0 12 3 5 6 -20 7 -16 51 5 56 13 4
11 5 -5 6 -20 1 -23 -4 -23 -34z"/>
<path d="M1192 1023 c10 -2 18 -17 21 -36 4 -31 4 -31 5 6 2 33 -1 37 -20 36
-16 -1 -18 -3 -6 -6z"/>
<path d="M1403 1023 c9 -2 23 -2 30 0 6 3 -1 5 -18 5 -16 0 -22 -2 -12 -5z"/>
<path d="M1450 995 c0 -34 1 -35 38 -35 36 0 37 1 37 35 0 34 -1 35 -37 35
-37 0 -38 -1 -38 -35z m60 0 c0 -20 -5 -25 -25 -25 -20 0 -25 5 -25 25 0 20 5
25 25 25 20 0 25 -5 25 -25z"/>
<path d="M1542 993 c1 -37 1 -37 5 -5 4 26 9 32 29 32 33 0 35 -46 2 -53 -20
-4 -19 -4 5 -6 25 -1 27 2 27 34 0 33 -2 35 -35 35 -34 0 -35 -1 -33 -37z"/>
<path d="M1620 995 c0 -34 1 -35 40 -35 37 0 40 2 39 28 -2 23 -2 24 -6 5 -3
-18 -11 -23 -34 -23 -24 0 -29 4 -29 24 0 21 5 25 38 29 l37 4 -42 1 c-43 2
-43 2 -43 -33z"/>
<path d="M1710 995 c0 -34 1 -35 40 -35 39 0 40 1 40 35 0 34 -1 35 -40 35
-39 0 -40 -1 -40 -35z m70 0 c0 -21 -5 -25 -30 -25 -25 0 -30 4 -30 25 0 21 5
25 30 25 25 0 30 -4 30 -25z"/>
<path d="M1800 995 c0 -34 1 -35 40 -35 39 0 40 1 40 35 0 34 -1 35 -40 35
-39 0 -40 -1 -40 -35z m70 0 c0 -21 -5 -25 -30 -25 -25 0 -30 4 -30 25 0 21 5
25 30 25 25 0 30 -4 30 -25z"/>
<path d="M1890 995 c0 -34 1 -35 40 -35 39 0 40 1 40 35 0 34 -1 35 -40 35
-39 0 -40 -1 -40 -35z m70 0 c0 -21 -5 -25 -30 -25 -25 0 -30 4 -30 25 0 21 5
25 30 25 25 0 30 -4 30 -25z"/>
<path d="M1980 995 c0 -34 1 -35 40 -35 39 0 40 1 40 35 0 34 -1 35 -40 35
-39 0 -40 -1 -40 -35z m70 0 c0 -21 -5 -25 -30 -25 -25 0 -30 4 -30 25 0 21 5
25 30 25 25 0 30 -4 30 -25z"/>
<path d="M2070 995 c0 -34 1 -35 40 -35 39 0 40 1 40 35 0 34 -1 35 -40 35
-39 0 -40 -1 -40 -35z m70 0 c0 -21 -5 -25 -30 -25 -25 0 -30 4 -30 25 0 21 5
25 30 25 25 0 30 -4 30 -25z"/>
<path d="M2160 995 c0 -33 2 -35 35 -35 33 0 35 2 35 35 0 33 -2 35 -35 35
-33 0 -35 -2 -35 -35z m60 0 c0 -20 -5 -25 -25 -25 -20 0 -25 5 -25 25 0 20 5
25 25 25 20 0 25 -5 25 -25z"/>
<path d="M2273 1023 c31 -4 37 -8 37 -28 0 -20 -6 -24 -37 -28 l-38 -4 43 -1
c42 -2 42 -2 42 33 0 35 0 35 -42 33 l-43 -1 38 -4z"/>
<path d="M2330 995 c0 -34 1 -35 40 -35 39 0 40 1 40 35 0 34 -1 35 -40 35
-39 0 -40 -1 -40 -35z m70 0 c0 -20 -5 -25 -24 -25 -13 0 -26 6 -29 13 -7 22
4 37 29 37 19 0 24 -5 24 -25z"/>
<path d="M2453 1023 c31 -4 37 -8 37 -28 0 -20 -6 -24 -37 -28 l-38 -4 43 -1
c42 -2 42 -2 42 33 0 35 0 35 -42 33 l-43 -1 38 -4z"/>
<path d="M2538 1023 c26 -4 32 -9 32 -28 0 -19 -6 -24 -32 -28 l-33 -4 36 -1
c35 -2 37 0 41 33 l4 35 -41 -2 c-36 -1 -37 -2 -7 -5z"/>
<path d="M2610 999 c0 -38 -23 -58 -70 -60 -31 -2 -32 -3 -7 -6 21 -3 27 -10
27 -28 0 -18 -6 -25 -27 -28 -23 -3 -21 -4 10 -6 20 0 37 -5 37 -11 0 -8 -53
-15 -82 -11 -12 1 -17 -53 -15 -157 l2 -102 -35 -2 -35 -1 33 -4 c28 -4 32 -8
32 -36 1 -18 2 -92 2 -165 1 -73 6 -136 10 -138 4 -3 8 0 8 5 0 6 14 11 31 11
16 0 28 -4 24 -9 -3 -5 3 -12 12 -14 10 -3 0 -6 -22 -7 -37 -2 -38 -3 -11 -9
17 -3 29 -9 28 -13 -1 -5 -2 -12 -2 -18 0 -5 -12 -10 -27 -10 -35 0 -27 -6 20
-13 l37 -6 0 58 0 58 -42 -1 -43 -1 -3 278 -2 277 44 0 45 0 4 63 3 62 2 -62
2 -63 45 0 45 0 0 -281 0 -282 -45 5 -45 6 0 -59 0 -59 40 0 c37 0 40 2 39 28
-2 23 -2 24 -6 5 -3 -16 -11 -23 -27 -23 -35 0 -24 47 13 53 22 3 21 4 -9 7
l-35 3 35 7 35 7 -35 3 c-34 3 -33 3 10 9 l45 6 3 287 c2 262 4 287 20 292 9
2 4 5 -13 4 -69 -1 -95 3 -95 12 0 6 14 10 30 10 28 0 30 3 30 35 0 32 -2 35
-29 35 -35 0 -53 20 -19 21 13 0 17 3 11 6 -7 2 -13 15 -13 28 0 13 6 26 13
28 6 3 2 6 -10 6 -19 1 -23 -4 -23 -30z m60 -94 c0 -18 -5 -25 -20 -25 -15 0
-20 7 -20 25 0 18 5 25 20 25 15 0 20 -7 20 -25z"/>
<path d="M2665 995 c0 -19 3 -35 8 -35 4 0 7 16 7 35 0 19 -3 35 -7 35 -5 0
-8 -16 -8 -35z"/>
<path d="M2720 1021 c26 -4 35 -11 35 -26 0 -11 -7 -23 -15 -27 -11 -5 -9 -7
8 -7 19 -1 22 4 22 34 0 35 0 35 -42 34 l-43 -2 35 -6z"/>
<path d="M2780 995 c0 -33 2 -35 35 -35 33 0 35 2 35 35 0 33 -2 35 -35 35
-33 0 -35 -2 -35 -35z m60 0 c0 -18 -5 -25 -20 -25 -15 0 -20 7 -20 25 0 18 5
25 20 25 15 0 20 -7 20 -25z"/>
<path d="M1161 994 c0 -11 3 -14 6 -6 3 7 2 16 -1 19 -3 4 -6 -2 -5 -13z"/>
<path d="M1418 963 c7 -3 16 -2 19 1 4 3 -2 6 -13 5 -11 0 -14 -3 -6 -6z"/>
<path d="M2698 963 c7 -3 16 -2 19 1 4 3 -2 6 -13 5 -11 0 -14 -3 -6 -6z"/>
<path d="M5 890 c0 -25 7 -56 15 -70 7 -14 12 -27 11 -30 -1 -2 2 -6 8 -8 16
-5 14 14 -5 49 -8 17 -13 33 -10 36 2 3 12 -10 22 -28 l17 -33 16 30 c14 25
21 29 53 26 34 -3 36 -5 40 -41 3 -36 2 -38 -25 -39 -16 0 -30 -2 -32 -4 -1
-2 1 -23 5 -48 6 -37 8 -39 9 -14 2 46 31 55 31 10 0 -19 6 -37 13 -39 6 -3
-3 -6 -20 -6 -32 -1 -33 -3 -33 -41 0 -37 2 -40 28 -40 26 0 28 -2 24 -35 -4
-32 -6 -34 -38 -33 -30 1 -34 4 -34 30 0 25 -3 28 -35 28 -19 0 -35 -4 -35
-10 0 -5 13 -7 30 -3 27 5 30 3 30 -21 0 -23 -4 -26 -35 -26 -19 0 -35 -4 -35
-10 0 -6 35 -10 85 -10 l85 0 1 128 c1 70 5 159 9 197 5 47 7 6 6 -128 l-1
-198 88 3 c48 2 87 0 87 -4 0 -5 -83 -8 -184 -8 l-185 0 -4 48 c-2 35 -4 30
-4 -23 -1 -38 1 -63 5 -55 6 13 37 15 189 15 l182 0 4 -35 c2 -19 4 2 5 48 2
80 3 82 26 82 21 0 25 -5 29 -37 l4 -38 1 43 c2 42 2 42 -33 42 -32 0 -35 -3
-35 -28 0 -26 -4 -29 -32 -30 -18 0 -36 5 -40 11 -6 9 -8 9 -8 0 0 -7 -15 -12
-38 -11 -37 0 -39 2 -38 34 1 30 4 34 28 34 20 0 28 5 27 18 0 10 -3 12 -6 5
-8 -21 -33 -15 -33 7 0 17 5 20 33 17 19 -2 40 -8 47 -12 9 -5 11 -4 6 3 -4 7
-1 12 8 12 8 0 16 -12 19 -27 3 -20 4 -15 6 15 1 39 -1 42 -21 37 -50 -12 -86
-11 -103 1 -11 8 -13 14 -7 14 7 0 12 14 12 33 0 31 3 34 31 34 27 0 30 -3 27
-30 -2 -23 -8 -31 -25 -32 -39 -3 -38 -15 1 -15 22 0 35 4 31 10 -9 14 8 13
23 -2 9 -9 12 -9 12 1 0 7 5 9 10 6 6 -4 10 8 10 29 0 48 18 46 23 -1 l4 -38
1 38 c2 32 5 37 26 37 21 0 25 -5 29 -37 l4 -38 1 43 c2 41 1 42 -30 42 -28 1
-30 2 -15 11 10 6 24 8 31 6 8 -3 19 0 25 6 8 8 11 8 11 -2 0 -7 4 -10 8 -7 4
2 14 1 22 -5 12 -7 10 -9 -7 -9 -21 0 -23 -5 -21 -42 l1 -43 4 38 c4 32 8 37
29 37 21 0 24 -5 25 -37 2 -34 2 -35 6 -8 7 55 17 61 23 15 l7 -45 1 38 c2 32
5 37 27 37 22 0 25 -5 26 -37 2 -34 2 -35 6 -8 7 55 17 61 23 15 l7 -45 1 38
c2 32 5 37 26 37 21 0 25 -5 29 -37 l4 -38 1 43 c2 40 1 42 -28 42 -23 0 -28
4 -23 16 5 13 7 13 14 2 6 -8 9 0 9 25 0 23 -4 36 -10 32 -6 -4 -10 6 -10 24
0 16 -3 37 -7 47 -5 14 -1 16 25 12 18 -2 32 -1 32 4 0 4 -16 8 -35 8 -38 0
-39 -3 -35 -70 1 -19 7 -39 13 -43 9 -6 9 -10 0 -14 -7 -2 -13 -11 -13 -18 0
-16 -22 -25 -58 -25 -23 1 -25 2 -10 11 10 5 25 9 34 7 9 -2 19 3 21 10 3 7
-5 12 -22 12 -17 0 -25 5 -22 13 2 6 14 11 25 9 15 -2 22 2 22 14 0 13 -3 14
-15 4 -19 -16 -20 -2 -1 19 9 10 12 27 9 44 -5 23 -10 27 -39 27 -24 0 -34 -5
-34 -15 0 -8 -4 -15 -10 -15 -5 0 -10 7 -10 15 0 11 -11 15 -37 15 -41 0 -41
-9 0 -12 28 -2 38 -18 12 -18 -9 0 -18 -7 -21 -15 -4 -10 -20 -15 -45 -15 -35
0 -39 3 -39 24 0 18 7 26 23 29 19 4 18 4 -5 6 -25 1 -28 -2 -28 -31 0 -25 -3
-29 -10 -18 -6 10 -10 11 -10 3 0 -7 -4 -13 -10 -13 -5 0 -10 14 -10 30 0 27
-3 30 -32 29 -32 -2 -32 -2 -5 -6 22 -4 28 -9 25 -26 -2 -17 -10 -22 -35 -24
-30 -1 -33 1 -33 28 0 16 -4 29 -8 29 -5 0 -7 -13 -4 -28 3 -22 0 -28 -17 -29
-11 -1 -20 1 -20 5 4 25 -3 52 -12 52 -6 0 -9 -6 -6 -13 5 -14 -27 -40 -37
-30 -3 3 -1 14 5 24 8 17 6 19 -18 18 -18 0 -23 -3 -13 -7 19 -9 19 -47 0 -47
-8 0 -18 9 -22 20 -6 19 -6 19 -7 -2 -2 -34 -21 -28 -21 7 0 28 -2 30 -37 28
-37 -1 -37 -1 -5 -5 26 -4 32 -9 32 -29 0 -13 -4 -24 -10 -24 -5 0 -10 -7 -10
-16 0 -8 -5 -12 -10 -9 -6 4 -8 9 -6 13 2 4 -3 16 -11 27 -13 16 -15 17 -10 3
4 -12 1 -18 -8 -18 -7 0 -16 12 -18 28 -2 15 -3 7 -2 -18z m615 28 c0 -7 -5
-20 -10 -28 -8 -13 -11 -12 -24 5 -21 28 -20 35 9 35 14 0 25 -6 25 -12z m-50
-27 c0 -5 -10 -11 -22 -13 -28 -4 -35 -25 -7 -24 12 1 26 -7 33 -16 23 -37
-36 -77 -64 -43 -11 13 -9 14 19 9 27 -6 31 -4 31 16 0 20 -4 22 -30 16 -29
-5 -30 -4 -24 22 4 15 8 29 10 32 5 10 54 10 54 1z m-320 -56 c0 -24 5 -35 15
-35 10 0 15 11 15 35 0 19 5 35 10 35 6 0 10 -19 10 -43 0 -42 -1 -43 -32 -42
-32 0 -33 2 -36 43 -2 25 1 42 7 42 6 0 11 -16 11 -35z m146 8 c2 -19 -3 -23
-27 -23 -40 0 -37 -18 4 -22 l32 -4 -28 -8 c-37 -11 -62 11 -53 47 9 39 70 47
72 10z m94 15 c0 -5 -18 -8 -40 -8 -22 0 -40 3 -40 8 0 4 18 7 40 7 22 0 40
-3 40 -7z m110 8 c0 -3 -4 -8 -10 -11 -5 -3 -10 -1 -10 4 0 6 5 11 10 11 6 0
10 -2 10 -4z m-110 -46 c0 -5 -18 -10 -40 -10 -22 0 -40 5 -40 10 0 6 18 10
40 10 22 0 40 -4 40 -10z m-140 -86 c0 -33 -33 -30 -38 4 -3 17 2 22 17 22 16
0 21 -6 21 -26z m-190 -89 c0 -16 -6 -25 -15 -25 -9 0 -15 9 -15 25 0 16 6 25
15 25 9 0 15 -9 15 -25z"/>
<path d="M340 840 c0 -5 9 -10 20 -10 11 0 20 5 20 10 0 6 -9 10 -20 10 -11 0
-20 -4 -20 -10z"/>
<path d="M767 933 c27 -4 32 -9 36 -36 4 -31 4 -31 5 6 2 37 2 37 -35 35 -37
-1 -37 -1 -6 -5z"/>
<path d="M830 905 c0 -33 2 -35 35 -35 33 0 35 2 35 35 0 33 -2 35 -35 35 -33
0 -35 -2 -35 -35z m60 0 c0 -20 -5 -25 -25 -25 -20 0 -25 5 -25 25 0 20 5 25
25 25 20 0 25 -5 25 -25z"/>
<path d="M920 905 c0 -33 2 -35 33 -35 30 0 32 2 32 35 0 33 -2 35 -32 35 -31
0 -33 -2 -33 -35z m50 0 c0 -18 -5 -25 -20 -25 -15 0 -20 7 -20 25 0 18 5 25
20 25 15 0 20 -7 20 -25z"/>
<path d="M1000 905 c0 -34 1 -35 38 -35 36 0 37 1 37 35 0 34 -1 35 -37 35
-37 0 -38 -1 -38 -35z m60 0 c0 -20 -5 -25 -25 -25 -20 0 -25 5 -25 25 0 20 5
25 25 25 20 0 25 -5 25 -25z"/>
<path d="M1090 905 c0 -34 1 -35 38 -35 36 0 37 1 37 35 0 34 -1 35 -37 35
-37 0 -38 -1 -38 -35z m60 0 c0 -20 -5 -25 -25 -25 -20 0 -25 5 -25 25 0 20 5
25 25 25 20 0 25 -5 25 -25z"/>
<path d="M1183 905 c0 -22 2 -30 4 -17 2 12 2 30 0 40 -3 9 -5 -1 -4 -23z"/>
<path d="M1452 903 c1 -37 1 -37 5 -5 4 26 9 32 29 32 33 0 35 -46 2 -53 -20
-4 -19 -4 5 -6 25 -1 27 2 27 34 0 33 -2 35 -35 35 -34 0 -35 -1 -33 -37z"/>
<path d="M1542 908 c-2 -37 -1 -38 33 -38 33 0 35 2 35 35 0 32 -2 35 -27 34
-24 -2 -25 -2 -5 -6 33 -7 31 -53 -2 -53 -20 0 -25 6 -29 33 -4 31 -4 31 -5
-5z"/>
<path d="M1620 905 c0 -34 1 -35 40 -35 39 0 40 1 40 35 0 34 -1 35 -40 35
-39 0 -40 -1 -40 -35z m70 0 c0 -21 -5 -25 -30 -25 -25 0 -30 4 -30 25 0 21 5
25 30 25 25 0 30 -4 30 -25z"/>
<path d="M1710 905 c0 -34 1 -35 40 -35 39 0 40 1 40 35 0 34 -1 35 -40 35
-39 0 -40 -1 -40 -35z m70 0 c0 -21 -5 -25 -30 -25 -25 0 -30 4 -30 25 0 21 5
25 30 25 25 0 30 -4 30 -25z"/>
<path d="M1800 905 c0 -34 1 -35 40 -35 39 0 40 1 40 35 0 34 -1 35 -40 35
-39 0 -40 -1 -40 -35z m70 0 c0 -21 -5 -25 -30 -25 -25 0 -30 4 -30 25 0 21 5
25 30 25 25 0 30 -4 30 -25z"/>
<path d="M1890 905 c0 -34 1 -35 40 -35 39 0 40 1 40 35 0 34 -1 35 -40 35
-39 0 -40 -1 -40 -35z m70 0 c0 -21 -5 -25 -30 -25 -25 0 -30 4 -30 25 0 21 5
25 30 25 25 0 30 -4 30 -25z"/>
<path d="M1980 905 c0 -34 1 -35 40 -35 39 0 40 1 40 35 0 34 -1 35 -40 35
-39 0 -40 -1 -40 -35z m70 0 c0 -21 -5 -25 -30 -25 -25 0 -30 4 -30 25 0 21 5
25 30 25 25 0 30 -4 30 -25z"/>
<path d="M2070 905 c0 -34 1 -35 40 -35 39 0 40 1 40 35 0 34 -1 35 -40 35
-39 0 -40 -1 -40 -35z m70 0 c0 -21 -5 -25 -30 -25 -25 0 -30 4 -30 25 0 21 5
25 30 25 25 0 30 -4 30 -25z"/>
<path d="M2160 905 c0 -33 2 -35 35 -35 33 0 35 2 35 35 0 33 -2 35 -35 35
-33 0 -35 -2 -35 -35z m60 0 c0 -20 -5 -25 -25 -25 -20 0 -25 5 -25 25 0 20 5
25 25 25 20 0 25 -5 25 -25z"/>
<path d="M2272 933 c33 -4 37 -8 41 -36 4 -31 4 -31 5 6 l2 37 -42 -2 -43 -1
37 -4z"/>
<path d="M2330 905 c0 -34 1 -35 40 -35 39 0 40 1 40 35 0 34 -1 35 -40 35
-39 0 -40 -1 -40 -35z m70 0 c0 -21 -5 -25 -30 -25 -25 0 -30 4 -30 25 0 21 5
25 30 25 25 0 30 -4 30 -25z"/>
<path d="M2453 933 c31 -4 37 -8 37 -28 0 -20 -6 -24 -37 -28 l-38 -4 43 -1
c42 -2 42 -2 42 33 0 35 0 35 -42 33 l-43 -1 38 -4z"/>
<path d="M2720 931 c26 -4 35 -11 35 -26 0 -15 -9 -22 -35 -26 l-35 -6 43 -2
c42 -1 42 -1 42 34 0 35 0 35 -42 34 l-43 -2 35 -6z"/>
<path d="M2780 905 c0 -32 3 -35 28 -34 16 1 20 3 10 6 -26 7 -24 53 1 53 15
0 21 -8 24 -32 4 -32 4 -32 5 5 2 36 1 37 -33 37 -33 0 -35 -2 -35 -35z"/>
<path d="M441 904 c0 -11 3 -14 6 -6 3 7 2 16 -1 19 -3 4 -6 -2 -5 -13z"/>
<path d="M471 904 c0 -11 3 -14 6 -6 3 7 2 16 -1 19 -3 4 -6 -2 -5 -13z"/>
<path d="M742 895 c0 -16 2 -22 5 -12 2 9 2 23 0 30 -3 6 -5 -1 -5 -18z"/>
<path d="M1240 901 c0 -12 -8 -21 -22 -24 -18 -3 -15 -5 8 -6 28 -1 31 1 26
24 -5 30 -12 33 -12 6z"/>
<path d="M768 873 c7 -3 16 -2 19 1 4 3 -2 6 -13 5 -11 0 -14 -3 -6 -6z"/>
<path d="M1298 873 c7 -3 16 -2 19 1 4 3 -2 6 -13 5 -11 0 -14 -3 -6 -6z"/>
<path d="M2253 873 c9 -2 25 -2 35 0 9 3 1 5 -18 5 -19 0 -27 -2 -17 -5z"/>
<path d="M86 814 c-8 -18 -24 -35 -35 -39 -17 -5 -21 -14 -19 -48 l1 -42 4 38
c4 32 7 38 26 35 16 -2 24 -12 28 -38 l6 -35 2 42 c0 25 -4 43 -11 46 -8 3 -5
6 6 6 11 1 16 6 13 15 -7 17 11 36 35 36 10 0 18 5 18 10 0 6 -13 9 -29 8 -22
-2 -33 -10 -45 -34z"/>
<path d="M743 815 c0 -22 2 -30 4 -17 2 12 2 30 0 40 -3 9 -5 -1 -4 -23z"/>
<path d="M768 843 c7 -3 16 -2 19 1 4 3 -2 6 -13 5 -11 0 -14 -3 -6 -6z"/>
<path d="M803 815 c0 -22 2 -30 4 -17 2 12 2 30 0 40 -3 9 -5 -1 -4 -23z"/>
<path d="M832 813 c1 -37 1 -37 5 -5 4 26 9 32 28 32 19 0 24 -6 28 -32 4 -32
4 -32 5 5 2 36 1 37 -33 37 -34 0 -35 -1 -33 -37z"/>
<path d="M922 813 c1 -37 1 -37 5 -5 3 24 9 32 24 32 15 0 19 -7 19 -32 0 -39
13 -29 14 12 1 27 -2 30 -31 30 -32 0 -33 -2 -31 -37z"/>
<path d="M1002 813 c1 -37 1 -37 5 -5 4 26 9 32 28 32 19 0 24 -6 27 -32 l3
-33 6 38 5 37 -38 0 c-38 0 -38 0 -36 -37z"/>
<path d="M1092 813 c1 -37 1 -37 5 -5 4 27 8 32 30 32 22 0 25 -4 21 -25 -3
-14 -2 -28 2 -30 4 -3 10 11 12 30 4 35 4 35 -34 35 -38 0 -38 0 -36 -37z"/>
<path d="M1183 815 c0 -22 2 -30 4 -17 2 12 2 30 0 40 -3 9 -5 -1 -4 -23z"/>
<path d="M1217 843 c16 -3 23 -13 25 -36 l3 -32 6 38 c5 36 4 37 -26 36 -22
-1 -24 -3 -8 -6z"/>
<path d="M1273 815 c0 -22 2 -30 4 -17 2 12 2 30 0 40 -3 9 -5 -1 -4 -23z"/>
<path d="M1307 843 c16 -3 23 -13 26 -36 4 -31 4 -31 5 6 2 34 0 37 -25 36
-23 -1 -24 -2 -6 -6z"/>
<path d="M1363 815 c0 -22 2 -30 4 -17 2 12 2 30 0 40 -3 9 -5 -1 -4 -23z"/>
<path d="M1397 843 c16 -3 23 -13 25 -36 l3 -32 6 38 c5 36 4 37 -26 36 -22
-1 -24 -3 -8 -6z"/>
<path d="M1453 815 c0 -22 2 -30 4 -17 2 12 2 30 0 40 -3 9 -5 -1 -4 -23z"/>
<path d="M1508 815 c2 -19 6 -35 8 -35 2 0 4 16 4 35 0 19 -4 35 -8 35 -4 0
-6 -16 -4 -35z"/>
<path d="M1542 813 c1 -37 1 -37 5 -5 4 26 9 32 28 32 19 0 24 -6 28 -32 4
-32 4 -32 5 5 2 36 1 37 -33 37 -34 0 -35 -1 -33 -37z"/>
<path d="M1622 813 c1 -37 1 -37 5 -5 4 28 8 32 33 32 25 0 29 -4 33 -32 4
-32 4 -32 5 5 2 37 2 37 -38 37 -40 0 -40 0 -38 -37z"/>
<path d="M1710 818 c0 -32 2 -33 40 -33 38 0 40 1 40 33 0 31 -2 32 -40 32
-38 0 -40 -1 -40 -32z m70 2 c0 -16 -7 -20 -30 -20 -23 0 -30 4 -30 20 0 16 7
20 30 20 23 0 30 -4 30 -20z"/>
<path d="M1802 813 c1 -37 1 -37 5 -5 4 28 8 32 33 32 25 0 29 -4 33 -32 4
-32 4 -32 5 5 2 37 2 37 -38 37 -40 0 -40 0 -38 -37z"/>
<path d="M1892 813 c1 -37 1 -37 5 -5 4 28 8 32 35 32 27 0 30 -3 26 -25 -3
-14 -1 -28 3 -31 5 -3 9 11 9 30 0 35 -1 36 -40 36 -40 0 -40 0 -38 -37z"/>
<path d="M1982 813 c1 -37 1 -37 5 -5 4 28 8 32 33 32 25 0 29 -4 33 -32 4
-32 4 -32 5 5 2 37 2 37 -38 37 -40 0 -40 0 -38 -37z"/>
<path d="M2072 813 c1 -37 1 -37 5 -5 4 28 8 32 33 32 25 0 29 -4 33 -32 4
-32 4 -32 5 5 2 37 2 37 -38 37 -40 0 -40 0 -38 -37z"/>
<path d="M2162 813 c1 -37 1 -37 5 -5 4 26 9 32 29 32 17 0 24 -6 24 -19 0
-11 -5 -21 -12 -23 -7 -3 -6 -7 5 -11 14 -5 17 0 17 28 0 33 -2 35 -35 35 -34
0 -35 -1 -33 -37z"/>
<path d="M2253 843 c9 -2 25 -2 35 0 9 3 1 5 -18 5 -19 0 -27 -2 -17 -5z"/>
<path d="M2313 815 c0 -22 2 -30 4 -17 2 12 2 30 0 40 -3 9 -5 -1 -4 -23z"/>
<path d="M2330 821 c0 -17 5 -33 10 -36 6 -4 10 7 10 24 0 26 4 31 25 31 33 0
35 -37 3 -42 -21 -3 -21 -4 5 -9 25 -6 27 -4 27 27 0 33 -1 34 -40 34 -38 0
-40 -2 -40 -29z"/>
<path d="M2421 828 c1 -16 3 -18 6 -6 2 9 16 19 31 21 24 4 24 4 -5 6 -28 1
-33 -2 -32 -21z"/>
<path d="M2756 824 c4 -23 2 -26 -16 -21 -11 3 -20 2 -20 -3 0 -4 11 -10 25
-12 23 -5 25 -2 25 28 0 19 -4 34 -9 34 -5 0 -8 -12 -5 -26z"/>
<path d="M2780 820 c0 -16 5 -30 10 -30 6 0 10 11 10 24 0 15 7 26 18 29 10 3
6 5 -10 6 -25 1 -28 -3 -28 -29z"/>
<path d="M2843 815 c0 -22 2 -30 4 -17 2 12 2 30 0 40 -3 9 -5 -1 -4 -23z"/>
<path d="M1 814 c0 -11 3 -14 6 -6 3 7 2 16 -1 19 -3 4 -6 -2 -5 -13z"/>
<path d="M125 810 c-3 -5 3 -10 14 -10 12 0 21 5 21 10 0 6 -6 10 -14 10 -8 0
-18 -4 -21 -10z"/>
<path d="M2510 555 l0 -265 85 0 85 0 0 265 0 265 -85 0 -85 0 0 -265z m40
233 c0 -9 4 -8 10 2 9 13 11 13 20 0 6 -10 10 -11 10 -3 0 17 68 14 74 -4 3
-7 2 -13 -3 -13 -4 0 -5 -20 -1 -45 l7 -45 -36 -2 c-36 -1 -36 -1 -4 -5 28 -4
31 -8 35 -44 3 -38 3 -39 -30 -39 -18 0 -31 -4 -28 -9 3 -4 16 -6 30 -4 21 4
24 1 28 -36 4 -41 3 -41 -32 -43 l-35 -1 32 -4 c28 -4 31 -8 35 -44 3 -38 3
-39 -29 -39 -18 0 -33 -4 -33 -8 0 -5 13 -7 29 -4 27 4 29 2 33 -37 3 -41 3
-41 -30 -41 -20 0 -31 -4 -27 -10 3 -6 1 -10 -4 -10 -6 0 -11 5 -11 10 0 6
-12 10 -26 10 -14 0 -23 -4 -19 -10 3 -6 1 -10 -4 -10 -8 0 -11 81 -11 250 0
160 4 250 10 250 6 0 10 -6 10 -12z"/>
<path d="M2578 730 c2 -22 6 -40 8 -40 2 0 4 18 4 40 0 22 -3 40 -8 40 -4 0
-6 -18 -4 -40z"/>
<path d="M2608 763 c6 -2 18 -2 25 0 6 3 1 5 -13 5 -14 0 -19 -2 -12 -5z"/>
<path d="M2559 673 c20 -4 23 -9 18 -39 -3 -19 -2 -34 4 -34 5 0 9 18 9 40 0
37 -2 40 -27 39 -26 -2 -26 -2 -4 -6z"/>
<path d="M2617 609 c7 -7 15 -10 18 -7 3 3 -2 9 -12 12 -14 6 -15 5 -6 -5z"/>
<path d="M2557 583 c17 -3 23 -13 26 -41 l4 -37 1 43 c2 40 1 42 -25 41 -23
-1 -24 -2 -6 -6z"/>
<path d="M2562 493 c11 -3 18 -17 21 -41 l4 -37 1 43 c2 38 0 42 -20 41 -17
-1 -18 -3 -6 -6z"/>
<path d="M2557 403 c17 -3 23 -13 26 -41 l4 -37 1 43 c2 40 1 42 -25 41 -23
-1 -24 -2 -6 -6z"/>
<path d="M1918 793 c7 -3 16 -2 19 1 4 3 -2 6 -13 5 -11 0 -14 -3 -6 -6z"/>
<path d="M3 730 c0 -25 2 -35 4 -22 2 12 2 32 0 45 -2 12 -4 2 -4 -23z"/>
<path d="M742 728 l1 -43 4 38 c4 31 8 37 28 37 20 0 24 -6 28 -37 l4 -38 1
43 c2 42 2 42 -33 42 -35 0 -35 0 -33 -42z"/>
<path d="M832 728 l1 -43 4 38 c4 31 8 37 28 37 20 0 24 -6 28 -37 l4 -38 1
43 c2 42 2 42 -33 42 -35 0 -35 0 -33 -42z"/>
<path d="M922 728 l1 -43 4 37 c4 33 8 37 36 41 31 4 31 4 -5 5 l-38 2 2 -42z"/>
<path d="M1003 730 c0 -25 2 -35 4 -22 2 12 2 32 0 45 -2 12 -4 2 -4 -23z"/>
<path d="M1038 763 c17 -3 22 -11 22 -35 0 -39 13 -29 15 12 2 28 -1 30 -29
29 -24 -1 -26 -3 -8 -6z"/>
<path d="M1092 728 l1 -43 4 38 c4 31 8 37 28 37 20 0 24 -6 27 -37 l3 -38 5
43 6 42 -38 0 -38 0 2 -42z"/>
<path d="M1182 728 l1 -43 4 38 c4 32 8 37 29 37 21 0 24 -4 24 -37 0 -45 8
-40 13 10 l4 37 -38 0 -39 0 2 -42z"/>
<path d="M1272 728 l1 -43 4 38 c4 31 8 37 28 37 13 0 26 -6 28 -12 3 -8 6 -6
6 5 1 13 -7 17 -34 17 -35 0 -35 0 -33 -42z"/>
<path d="M1362 728 l1 -43 4 38 c4 31 8 37 28 37 20 0 24 -6 27 -37 l3 -38 5
43 6 42 -38 0 -38 0 2 -42z"/>
<path d="M1453 730 c0 -25 2 -35 4 -22 2 12 2 32 0 45 -2 12 -4 2 -4 -23z"/>
<path d="M1497 762 c6 -4 13 -23 15 -42 l3 -35 6 43 c4 37 2 42 -16 42 -12 0
-16 -3 -8 -8z"/>
<path d="M1543 730 c0 -25 2 -35 4 -22 2 12 2 32 0 45 -2 12 -4 2 -4 -23z"/>
<path d="M1582 763 c11 -3 18 -17 21 -41 l4 -37 1 43 c2 38 0 42 -20 41 -17
-1 -18 -3 -6 -6z"/>
<path d="M1622 728 c1 -41 1 -41 5 -8 3 19 10 38 16 42 8 5 6 8 -5 8 -15 0
-18 -8 -16 -42z"/>
<path d="M1677 762 c6 -4 13 -23 16 -42 4 -33 4 -33 5 8 2 34 -1 42 -15 42
-12 0 -14 -3 -6 -8z"/>
<path d="M1710 730 c0 -22 2 -40 4 -40 2 0 6 18 8 40 2 22 0 40 -4 40 -5 0 -8
-18 -8 -40z"/>
<path d="M1767 762 c6 -4 13 -21 16 -37 4 -27 4 -27 6 8 1 29 -3 37 -16 37
-12 0 -14 -3 -6 -8z"/>
<path d="M1800 730 c0 -22 2 -40 4 -40 2 0 6 18 8 40 2 22 0 40 -4 40 -5 0 -8
-18 -8 -40z"/>
<path d="M1848 763 c21 -4 23 -9 20 -39 -2 -19 0 -34 4 -34 4 0 8 18 8 40 0
37 -2 40 -27 39 -26 -2 -26 -2 -5 -6z"/>
<path d="M1892 728 l1 -43 4 38 c4 33 7 37 33 37 26 0 29 -4 33 -37 l4 -38 1
43 2 42 -40 0 -40 0 2 -42z"/>
<path d="M1982 750 c0 -14 2 -19 5 -12 2 6 2 18 0 25 -3 6 -5 1 -5 -13z"/>
<path d="M2047 750 c3 -11 7 -20 9 -20 2 0 4 9 4 20 0 11 -4 20 -9 20 -5 0 -7
-9 -4 -20z"/>
<path d="M2072 728 l1 -43 4 38 c4 33 7 37 33 37 26 0 29 -4 33 -37 l4 -38 1
43 2 42 -40 0 -40 0 2 -42z"/>
<path d="M2162 728 l1 -43 4 38 c4 31 8 37 28 37 20 0 24 -6 28 -37 l4 -38 1
43 c2 42 2 42 -33 42 -35 0 -35 0 -33 -42z"/>
<path d="M2272 763 c34 -4 37 -7 41 -41 l4 -37 1 43 2 42 -42 -2 -43 -1 37 -4z"/>
<path d="M2331 753 c0 -11 3 -13 6 -5 2 6 18 12 33 12 26 0 29 -4 33 -37 l4
-38 1 43 2 42 -40 0 c-32 0 -40 -4 -39 -17z"/>
<path d="M2433 763 c9 -2 23 -2 30 0 6 3 -1 5 -18 5 -16 0 -22 -2 -12 -5z"/>
<path d="M2720 733 c0 -34 3 -38 25 -38 22 0 25 4 25 38 0 33 -3 37 -25 37
-22 0 -25 -4 -25 -37z m35 2 c0 -14 -6 -25 -12 -25 -7 0 -13 11 -13 25 0 14 6
25 13 25 6 0 12 -11 12 -25z"/>
<path d="M2780 735 c0 -19 5 -35 10 -35 6 0 10 6 9 13 -4 32 2 47 20 47 15 0
21 -8 24 -37 l4 -38 1 43 c2 42 2 42 -33 42 -33 0 -35 -2 -35 -35z"/>
<path d="M972 720 c0 -19 2 -27 5 -17 2 9 2 25 0 35 -3 9 -5 1 -5 -18z"/>
<path d="M271 724 c0 -11 3 -14 6 -6 3 7 2 16 -1 19 -3 4 -6 -2 -5 -13z"/>
<path d="M1981 704 c0 -11 3 -14 6 -6 3 7 2 16 -1 19 -3 4 -6 -2 -5 -13z"/>
<path d="M2051 704 c0 -11 3 -14 6 -6 3 7 2 16 -1 19 -3 4 -6 -2 -5 -13z"/>
<path d="M2335 700 c3 -5 8 -10 11 -10 2 0 4 5 4 10 0 6 -5 10 -11 10 -5 0 -7
-4 -4 -10z"/>
<path d="M3 640 c0 -25 2 -35 4 -22 2 12 2 32 0 45 -2 12 -4 2 -4 -23z"/>
<path d="M30 640 c0 -35 3 -40 23 -39 16 1 18 2 5 6 -12 3 -18 14 -18 34 0 24
4 29 24 29 21 0 25 -5 29 -37 l4 -38 1 43 c2 42 2 42 -33 42 -34 0 -35 -1 -35
-40z"/>
<path d="M382 645 c-2 -39 -1 -40 33 -40 34 0 35 1 35 38 0 34 -2 37 -27 36
-24 -2 -25 -2 -5 -6 33 -7 31 -53 -2 -53 -20 0 -25 6 -29 33 -3 29 -4 29 -5
-8z"/>
<path d="M470 643 c0 -37 1 -38 35 -38 34 0 35 1 35 38 0 36 -1 37 -35 37 -34
0 -35 -1 -35 -37z m60 2 c0 -20 -5 -25 -25 -25 -20 0 -25 5 -25 25 0 20 5 25
25 25 20 0 25 -5 25 -25z"/>
<path d="M562 638 l1 -43 4 38 c4 32 8 37 29 37 33 0 35 -47 2 -52 -21 -3 -21
-4 5 -9 26 -6 27 -4 27 32 0 38 -1 39 -35 39 -35 0 -35 0 -33 -42z"/>
<path d="M650 643 c0 -37 1 -38 35 -38 34 0 35 1 35 38 0 36 -1 37 -35 37 -34
0 -35 -1 -35 -37z m60 2 c0 -20 -5 -25 -25 -25 -20 0 -25 5 -25 25 0 20 5 25
25 25 20 0 25 -5 25 -25z"/>
<path d="M740 642 c0 -37 1 -38 29 -34 16 2 32 -1 35 -7 5 -7 -5 -11 -28 -11
-36 0 -36 0 -34 -42 l1 -43 4 38 c3 29 9 37 24 37 11 0 24 -10 30 -22 l10 -23
-5 23 c-6 33 11 17 19 -18 4 -17 12 -30 18 -30 7 0 6 -4 -3 -10 -11 -7 -7 -10
17 -10 17 0 34 -6 36 -12 4 -8 6 -7 6 4 1 9 -5 19 -11 21 -8 3 -6 6 5 6 10 1
20 -5 23 -13 3 -8 15 -11 30 -8 18 3 24 0 24 -14 1 -16 3 -15 15 6 l14 25 2
-25 c1 -17 3 -20 6 -7 5 20 14 22 32 5 8 -8 11 -8 8 -2 -4 7 3 14 18 16 20 4
25 1 26 -16 1 -17 2 -18 6 -3 4 15 44 24 85 19 3 -1 12 5 18 13 14 17 77 20
100 5 12 -8 11 -10 -7 -10 -13 0 -23 -4 -23 -9 0 -8 52 -6 78 4 7 3 12 -4 12
-18 1 -20 2 -20 11 -4 5 9 19 17 29 17 16 0 20 -7 21 -37 0 -27 3 -33 8 -19 4
10 6 31 5 47 -1 16 2 29 7 29 5 0 10 -21 11 -47 1 -44 2 -45 5 -10 4 32 8 37
29 37 21 0 24 -5 25 -37 l2 -38 6 40 c3 23 2 43 -4 47 -6 5 -2 8 8 8 12 0 17
-8 18 -27 1 -18 3 -22 6 -10 3 12 12 17 26 15 16 -2 24 -12 29 -38 6 -31 6
-29 5 13 -1 26 1 47 5 47 5 0 9 -21 10 -47 1 -45 2 -46 5 -10 4 35 7 38 31 35
22 -2 28 -10 34 -38 6 -32 6 -30 5 12 0 26 2 50 6 54 4 4 8 -17 9 -47 1 -41 2
-45 5 -18 3 30 9 38 29 42 19 3 25 -1 29 -17 11 -55 14 -57 12 -13 -1 26 1 47
5 47 5 0 9 -12 9 -27 1 -17 3 -21 6 -10 3 10 14 17 28 17 18 0 25 -8 33 -37
l11 -38 -2 52 c0 29 2 56 6 60 4 3 7 1 7 -5 0 -7 6 -12 14 -12 8 0 16 15 19
37 7 43 6 46 -17 37 -12 -4 -15 -13 -10 -28 4 -11 3 -17 -2 -13 -8 8 -10 25
-13 100 -1 36 -2 37 -40 37 -37 0 -40 -2 -44 -32 l-4 -33 -1 33 c-2 30 -4 32
-41 32 -37 0 -40 -2 -44 -32 l-4 -33 -1 33 c-2 30 -4 32 -41 32 -37 0 -40 -2
-44 -32 l-4 -33 -1 33 c-2 30 -5 32 -37 32 -31 0 -35 -3 -35 -25 0 -14 -5 -25
-11 -25 -7 0 -9 10 -7 25 5 23 2 25 -33 25 -36 0 -39 -2 -39 -27 -1 -24 -2
-26 -11 -10 -5 9 -7 22 -4 27 4 6 -10 10 -34 10 -33 0 -41 -4 -40 -17 0 -11 3
-13 6 -5 2 6 16 12 29 12 19 0 24 -5 24 -25 0 -26 -23 -35 -36 -14 -4 7 -24 9
-55 6 -43 -5 -49 -4 -49 13 0 14 9 20 38 23 l37 4 -42 1 -43 2 0 -37 c-1 -32
-2 -35 -11 -20 -6 10 -9 27 -6 38 4 16 0 19 -34 19 -38 0 -39 -1 -39 -37 -1
-29 -3 -34 -10 -22 -5 9 -8 26 -5 38 3 19 -1 21 -36 21 l-41 0 7 -83 c6 -68 4
-84 -7 -84 -7 0 -27 -2 -43 -6 -17 -3 -25 -4 -19 -1 7 3 10 22 6 49 -3 30 -1
45 7 45 6 0 11 -16 11 -36 0 -28 3 -35 17 -32 24 4 28 32 8 52 -12 12 -13 16
-3 16 8 1 6 6 -6 15 -16 12 -22 12 -28 2 -5 -8 -8 -7 -8 6 0 9 -4 17 -10 17
-5 0 -10 6 -10 14 0 10 13 16 38 19 l37 4 -42 1 -42 2 6 -85 c3 -48 2 -85 -3
-85 -5 0 -9 27 -8 60 1 57 -10 85 -25 63 -12 -20 -41 -10 -41 14 0 16 6 23 19
23 11 0 21 -5 23 -12 3 -7 7 -6 11 5 5 14 0 17 -28 17 -33 0 -35 -2 -35 -35 0
-31 -42 -135 -55 -135 -13 0 -55 104 -55 135 0 33 -2 35 -35 35 -34 0 -35 -1
-35 -38z m60 3 c0 -20 -5 -25 -25 -25 -20 0 -25 5 -25 25 0 20 5 25 25 25 20
0 25 -5 25 -25z m350 1 c0 -15 -7 -26 -19 -29 -25 -6 -31 0 -31 30 0 18 5 23
25 23 20 0 25 -5 25 -24z m90 -1 c0 -20 -5 -25 -25 -25 -20 0 -25 5 -25 25 0
20 5 25 25 25 20 0 25 -5 25 -25z m270 10 c0 -10 -9 -15 -27 -14 -22 1 -24 2
-8 7 20 5 20 5 0 13 -17 7 -16 8 8 8 18 1 27 -4 27 -14z m90 0 c0 -9 -9 -15
-25 -15 -16 0 -25 6 -25 15 0 9 9 15 25 15 16 0 25 -6 25 -15z m90 0 c0 -10
-10 -15 -30 -15 -20 0 -30 5 -30 15 0 10 10 15 30 15 20 0 30 -5 30 -15z m90
0 c0 -10 -10 -15 -30 -15 -20 0 -30 5 -30 15 0 10 10 15 30 15 20 0 30 -5 30
-15z m90 0 c0 -10 -10 -15 -30 -15 -20 0 -30 5 -30 15 0 10 10 15 30 15 20 0
30 -5 30 -15z m-506 -41 c20 -19 21 -78 1 -94 -8 -6 -22 -10 -32 -8 -38 7 -43
101 -5 111 9 3 18 5 19 6 1 0 9 -6 17 -15z m146 -49 c0 -49 -10 -60 -46 -51
-21 6 -24 12 -24 51 0 49 21 71 52 54 13 -7 18 -22 18 -54z m90 0 c0 -49 -10
-60 -46 -51 -21 6 -24 12 -24 51 0 49 21 71 52 54 13 -7 18 -22 18 -54z m90
-1 c0 -48 -18 -66 -49 -47 -23 15 -27 84 -5 100 30 22 54 -1 54 -53z m90 0 c0
-48 -18 -66 -49 -47 -23 15 -27 84 -5 100 30 22 54 -1 54 -53z m90 36 c0 -5
-5 -12 -11 -15 -7 -5 -5 -13 5 -24 13 -15 14 -20 3 -35 -15 -20 -58 -19 -65 1
-2 9 5 11 27 7 34 -7 42 8 14 25 -16 9 -16 12 -3 20 12 8 12 13 3 22 -9 9 -16
9 -28 -1 -9 -8 -15 -8 -15 -2 0 18 33 31 52 21 10 -5 18 -14 18 -19z m-735 0
c-3 -5 -12 -10 -18 -10 -7 0 -6 4 3 10 19 12 23 12 15 0z m283 -2 c-4 -12 -22
-12 -26 0 -1 5 4 9 13 9 9 0 14 -4 13 -9z m-462 -6 c6 -4 14 -23 17 -44 5 -35
5 -36 -26 -35 -25 2 -32 7 -32 22 0 13 8 21 23 23 12 2 22 8 22 14 0 6 -11 8
-27 3 -23 -5 -25 -4 -14 9 15 18 21 19 37 8z m228 -8 c24 -23 19 -34 -14 -34
-16 0 -30 -4 -30 -10 0 -5 15 -10 33 -10 24 0 28 -3 17 -10 -26 -17 -50 -11
-62 15 -9 21 -8 28 7 45 22 24 29 25 49 4z m106 4 c0 -4 -18 -8 -40 -8 -22 0
-40 4 -40 9 0 5 18 8 40 8 22 -1 40 -5 40 -9z m0 -38 c0 -5 -18 -10 -40 -10
-22 0 -40 5 -40 10 0 6 18 10 40 10 22 0 40 -4 40 -10z m130 -30 c0 -5 -4 -10
-10 -10 -5 0 -10 5 -10 10 0 6 5 10 10 10 6 0 10 -4 10 -10z"/>
<path d="M1648 653 c6 -2 18 -2 25 0 6 3 1 5 -13 5 -14 0 -19 -2 -12 -5z"/>
<path d="M1738 653 c7 -3 16 -2 19 1 4 3 -2 6 -13 5 -11 0 -14 -3 -6 -6z"/>
<path d="M1828 653 c7 -3 16 -2 19 1 4 3 -2 6 -13 5 -11 0 -14 -3 -6 -6z"/>
<path d="M1327 604 c-4 -4 -7 -22 -7 -41 0 -27 4 -33 21 -33 17 0 20 5 17 37
-3 35 -17 51 -31 37z"/>
<path d="M1460 595 c-17 -21 -4 -67 18 -63 12 2 17 13 17 37 0 38 -15 50 -35
26z"/>
<path d="M1550 595 c-17 -21 -4 -67 18 -63 12 2 17 13 17 37 0 38 -15 50 -35
26z"/>
<path d="M1640 595 c-17 -21 -4 -67 18 -63 12 2 17 13 17 37 0 38 -15 50 -35
26z"/>
<path d="M1731 596 c-19 -23 -10 -61 14 -61 16 0 20 7 20 34 0 38 -15 50 -34
27z"/>
<path d="M932 543 c-6 -2 -10 -9 -7 -13 7 -11 35 -2 35 11 0 10 -8 10 -28 2z"/>
<path d="M1145 570 c-3 -5 3 -10 14 -10 12 0 21 5 21 10 0 6 -6 10 -14 10 -8
0 -18 -4 -21 -10z"/>
<path d="M828 640 c-2 -22 -1 -40 2 -40 4 0 14 -15 22 -32 l16 -33 12 33 c7
17 15 32 19 32 3 0 5 18 3 40 -4 38 -6 40 -37 40 -31 0 -33 -2 -37 -40z m62 5
c0 -20 -5 -25 -25 -25 -20 0 -25 5 -25 25 0 20 5 25 25 25 20 0 25 -5 25 -25z
m-15 -45 c3 -5 -1 -10 -9 -10 -9 0 -16 5 -16 10 0 6 4 10 9 10 6 0 13 -4 16
-10z"/>
<path d="M1890 640 c0 -44 5 -48 32 -23 17 15 18 14 18 -45 0 -57 -2 -62 -25
-68 -22 -5 -25 -11 -23 -48 l1 -41 4 38 c4 33 7 37 33 37 26 0 29 -4 33 -37
l4 -38 1 42 c1 23 -3 44 -8 46 -6 3 -5 4 2 3 7 -1 15 -13 18 -27 l6 -24 7 28
c7 24 20 32 52 28 6 0 11 22 11 49 l1 50 -33 0 c-24 0 -34 -5 -34 -15 0 -10
10 -15 30 -15 17 0 30 -4 30 -10 0 -5 -14 -10 -31 -10 -28 0 -31 -3 -27 -25 3
-14 1 -25 -3 -25 -5 0 -9 21 -9 48 0 26 -3 64 -6 85 -6 35 -8 37 -45 37 -39 0
-39 0 -39 -40z m70 16 c0 -8 -13 -16 -30 -18 -24 -4 -30 -1 -30 14 0 13 8 18
30 18 19 0 30 -5 30 -14z m70 -120 c0 -3 -4 -8 -10 -11 -5 -3 -10 -1 -10 4 0
6 5 11 10 11 6 0 10 -2 10 -4z"/>
<path d="M1980 665 c0 -10 11 -15 38 -16 l37 -2 -40 -6 c-42 -6 -35 -25 8 -20
12 2 29 -1 37 -6 18 -12 61 -14 54 -3 -3 4 -12 8 -20 8 -8 0 -14 10 -14 25 0
21 5 25 31 25 29 0 31 -2 27 -30 -3 -16 -1 -30 4 -30 4 0 8 16 8 35 0 34 -1
35 -39 35 -36 0 -40 -3 -44 -27 l-4 -28 -2 28 c-1 25 -4 27 -41 27 -29 0 -40
-4 -40 -15z m58 -2 c-10 -2 -26 -2 -35 0 -10 3 -2 5 17 5 19 0 27 -2 18 -5z"/>
<path d="M2160 640 c0 -32 3 -40 16 -38 12 2 17 -5 18 -24 1 -16 -3 -24 -9
-20 -5 3 -4 -1 2 -9 10 -12 10 -18 0 -29 -6 -7 -7 -10 -1 -7 8 4 10 -9 6 -43
l-5 -50 89 1 c49 0 83 3 77 6 -15 5 -6 54 11 65 7 5 4 8 -6 8 -10 0 -18 5 -18
11 0 5 4 7 10 4 7 -4 7 3 0 20 -13 33 -13 38 1 29 8 -5 8 -1 0 14 -15 29 -15
29 24 27 34 -1 35 0 35 37 0 38 0 38 -40 38 -22 0 -40 -4 -40 -8 0 -4 16 -6
35 -4 32 4 35 2 35 -22 0 -22 -4 -26 -30 -26 -16 0 -30 5 -30 11 0 5 -4 8 -9
4 -5 -3 -8 -25 -7 -50 1 -25 1 -45 0 -45 -2 0 -19 16 -39 35 -38 39 -60 38
-50 -2 4 -18 2 -24 -7 -21 -28 10 -16 78 14 78 6 0 23 -14 39 -31 24 -26 29
-28 29 -13 0 11 3 36 6 57 l7 37 -44 -2 c-44 -1 -44 -1 -6 -5 24 -3 37 -9 37
-19 0 -10 -13 -14 -49 -14 -28 0 -53 -4 -56 -10 -12 -20 -35 -10 -35 15 0 20
5 25 24 25 13 0 27 -6 29 -12 3 -8 6 -6 6 5 1 13 -7 17 -34 17 -34 0 -35 -1
-35 -40z m170 -119 c0 -6 -13 -18 -30 -28 -16 -9 -30 -23 -30 -30 0 -8 12 -13
30 -13 17 0 30 -4 30 -9 0 -6 -27 -10 -61 -10 l-60 1 3 41 c2 35 7 43 26 45
13 2 24 -3 28 -12 5 -14 9 -13 31 4 29 23 33 24 33 11z m10 -46 c0 -8 -4 -15
-10 -15 -5 0 -10 7 -10 15 0 8 5 15 10 15 6 0 10 -7 10 -15z"/>
<path d="M2230 476 c0 -17 5 -26 16 -26 10 0 14 7 12 22 -5 32 -28 35 -28 4z"/>
<path d="M2433 673 c9 -2 23 -2 30 0 6 3 -1 5 -18 5 -16 0 -22 -2 -12 -5z"/>
<path d="M2720 643 c0 -34 3 -38 25 -38 22 0 25 4 25 38 0 33 -3 37 -25 37
-22 0 -25 -4 -25 -37z m35 2 c0 -14 -6 -25 -12 -25 -7 0 -13 11 -13 25 0 14 6
25 13 25 6 0 12 -11 12 -25z"/>
<path d="M2780 640 c0 -42 2 -44 35 -30 17 7 17 9 3 9 -26 1 -25 51 1 51 15 0
21 -8 24 -37 l4 -38 1 43 c2 42 2 42 -33 42 -34 0 -35 -1 -35 -40z"/>
<path d="M1328 653 c7 -3 16 -2 19 1 4 3 -2 6 -13 5 -11 0 -14 -3 -6 -6z"/>
<path d="M301 614 c0 -11 3 -14 6 -6 3 7 2 16 -1 19 -3 4 -6 -2 -5 -13z"/>
<path d="M121 568 c1 -19 2 -19 6 -5 3 11 11 16 19 13 8 -3 14 -1 14 4 0 6 -9
10 -20 10 -14 0 -20 -6 -19 -22z"/>
<path d="M240 579 c0 -5 4 -8 9 -4 6 3 15 -3 21 -12 11 -17 11 -17 6 0 -3 10
-6 21 -6 23 0 2 -7 4 -15 4 -8 0 -15 -5 -15 -11z"/>
<path d="M290 580 c0 -5 5 -10 10 -10 6 0 10 5 10 10 0 6 -4 10 -10 10 -5 0
-10 -4 -10 -10z"/>
<path d="M320 586 c0 -2 9 -6 20 -9 11 -3 20 -1 20 4 0 5 -9 9 -20 9 -11 0
-20 -2 -20 -4z"/>
<path d="M472 548 l1 -43 4 38 c4 31 8 37 28 37 20 0 24 -6 28 -37 l4 -38 1
43 c2 42 2 42 -33 42 -35 0 -35 0 -33 -42z"/>
<path d="M562 548 l1 -43 4 38 c4 31 8 37 28 37 20 0 24 -6 28 -37 l4 -38 1
43 c2 42 2 42 -33 42 -35 0 -35 0 -33 -42z"/>
<path d="M652 548 l1 -43 4 38 c4 31 8 37 28 37 20 0 24 -6 28 -37 l4 -38 1
43 c2 42 2 42 -33 42 -35 0 -35 0 -33 -42z"/>
<path d="M2072 548 c1 -41 1 -41 5 -8 3 19 10 38 16 42 8 5 6 8 -5 8 -15 0
-18 -8 -16 -42z"/>
<path d="M2118 583 c7 -3 16 -2 19 1 4 3 -2 6 -13 5 -11 0 -14 -3 -6 -6z"/>
<path d="M2160 548 c0 -49 5 -47 13 5 3 20 2 37 -4 37 -5 0 -9 -19 -9 -42z"/>
<path d="M2378 583 c21 -4 23 -9 20 -39 -2 -19 0 -34 4 -34 4 0 8 18 8 40 0
37 -2 40 -27 39 -26 -2 -26 -2 -5 -6z"/>
<path d="M2722 548 l1 -43 4 38 c4 39 22 52 24 17 2 -33 4 -38 12 -46 4 -4 7
11 7 34 0 38 -2 42 -25 42 -23 0 -25 -3 -23 -42z"/>
<path d="M2780 550 c0 -22 5 -40 10 -40 6 0 10 6 9 13 -5 38 2 57 20 57 15 0
21 -8 24 -37 l4 -38 1 43 c2 42 2 42 -33 42 -34 0 -35 -1 -35 -40z"/>
<path d="M2142 535 c0 -16 2 -22 5 -12 2 9 2 23 0 30 -3 6 -5 -1 -5 -18z"/>
<path d="M417 493 c17 -3 23 -13 26 -41 l4 -37 1 43 c2 40 1 42 -25 41 -23 -1
-24 -2 -6 -6z"/>
<path d="M472 458 l1 -43 4 38 c4 31 8 37 28 37 20 0 24 -6 28 -37 l4 -38 1
43 c2 42 2 42 -33 42 -35 0 -35 0 -33 -42z"/>
<path d="M562 458 l1 -43 4 38 c4 31 8 37 28 37 20 0 24 -6 28 -37 l4 -38 1
43 c2 42 2 42 -33 42 -35 0 -35 0 -33 -42z"/>
<path d="M652 458 l1 -43 4 38 c4 31 8 37 28 37 20 0 24 -6 28 -37 l4 -38 1
43 c2 42 2 42 -33 42 -35 0 -35 0 -33 -42z"/>
<path d="M742 458 l1 -43 4 38 c4 31 8 37 28 37 20 0 24 -6 28 -37 l4 -38 1
43 c2 42 2 42 -33 42 -35 0 -35 0 -33 -42z"/>
<path d="M1200 490 c0 -5 14 -10 30 -10 17 0 30 5 30 10 0 6 -13 10 -30 10
-16 0 -30 -4 -30 -10z"/>
<path d="M2053 460 c0 -25 2 -35 4 -22 2 12 2 32 0 45 -2 12 -4 2 -4 -23z"/>
<path d="M2072 458 c1 -41 1 -41 5 -8 3 19 10 38 16 42 8 5 6 8 -5 8 -15 0
-18 -8 -16 -42z"/>
<path d="M2118 493 c7 -3 16 -2 19 1 4 3 -2 6 -13 5 -11 0 -14 -3 -6 -6z"/>
<path d="M2160 459 c0 -24 4 -38 10 -34 6 3 10 22 10 41 0 19 -4 34 -10 34 -5
0 -10 -18 -10 -41z"/>
<path d="M2387 492 c6 -4 13 -23 16 -42 4 -33 4 -33 5 8 2 34 -1 42 -15 42
-12 0 -14 -3 -6 -8z"/>
<path d="M2433 493 c9 -2 23 -2 30 0 6 3 -1 5 -18 5 -16 0 -22 -2 -12 -5z"/>
<path d="M2720 460 c0 -22 4 -40 8 -40 4 0 6 16 4 35 -3 28 -1 35 13 35 14 0
16 -7 13 -30 -3 -17 -1 -33 4 -36 4 -3 8 13 8 35 0 37 -2 41 -25 41 -22 0 -25
-4 -25 -40z"/>
<path d="M2780 460 c0 -22 4 -40 9 -40 6 0 7 16 4 35 -5 32 -4 35 20 35 22 0
26 -5 30 -37 l4 -38 1 43 c2 42 2 42 -33 42 -34 0 -35 -1 -35 -40z"/>
<path d="M1152 450 c0 -19 2 -27 5 -17 2 9 2 25 0 35 -3 9 -5 1 -5 -18z"/>
<path d="M90 460 c-1 -8 -2 -23 -1 -32 2 -14 -5 -18 -28 -18 -30 0 -31 -1 -29
-42 l1 -43 4 38 c4 31 8 37 28 37 20 0 24 -6 28 -37 l4 -38 1 39 c2 30 5 37
18 32 9 -3 24 -6 34 -6 13 0 19 -9 22 -35 4 -33 2 -35 -24 -35 -27 0 -28 -2
-26 -42 l1 -43 4 38 c5 49 33 52 33 3 0 -19 6 -37 13 -39 6 -3 -3 -6 -20 -6
-31 -1 -33 -3 -33 -35 0 -32 3 -35 33 -39 l32 -4 -32 -1 c-31 -2 -33 -4 -33
-42 0 -39 1 -40 35 -40 33 0 35 2 35 36 0 21 4 33 10 29 6 -3 10 -19 10 -36 0
-27 3 -29 35 -29 34 0 35 1 35 39 0 34 -3 38 -20 34 -11 -3 -31 -2 -45 1 l-25
6 0 130 0 130 -44 0 c-43 0 -45 1 -49 33 -2 17 -5 25 -7 17z m70 -265 c0 -16
-6 -25 -15 -25 -9 0 -15 9 -15 25 0 16 6 25 15 25 9 0 15 -9 15 -25z m20 -87
c0 -23 -4 -28 -25 -28 -21 0 -25 5 -25 30 0 26 3 29 25 28 20 -2 25 -8 25 -30z
m90 -3 c0 -20 -5 -25 -25 -25 -33 0 -35 37 -2 43 12 2 23 5 25 6 1 0 2 -10 2
-24z"/>
<path d="M113 458 c-2 -5 14 -8 36 -8 23 0 41 3 41 8 0 4 -16 7 -36 7 -20 0
-38 -3 -41 -7z"/>
<path d="M204 458 c-3 -4 13 -8 35 -8 23 0 41 3 41 8 0 10 -70 10 -76 0z"/>
<path d="M832 445 c0 -16 2 -22 5 -12 2 9 2 23 0 30 -3 6 -5 -1 -5 -18z"/>
<path d="M922 445 c0 -16 2 -22 5 -12 2 9 2 23 0 30 -3 6 -5 -1 -5 -18z"/>
<path d="M892 440 c0 -14 2 -19 5 -12 2 6 2 18 0 25 -3 6 -5 1 -5 -13z"/>
<path d="M1272 440 c0 -14 2 -19 5 -12 2 6 2 18 0 25 -3 6 -5 1 -5 -13z"/>
<path d="M1 434 c0 -11 3 -14 6 -6 3 7 2 16 -1 19 -3 4 -6 -2 -5 -13z"/>
<path d="M31 434 c0 -11 3 -14 6 -6 3 7 2 16 -1 19 -3 4 -6 -2 -5 -13z"/>
<path d="M351 434 c0 -11 3 -14 6 -6 3 7 2 16 -1 19 -3 4 -6 -2 -5 -13z"/>
<path d="M971 434 c0 -11 3 -14 6 -6 3 7 2 16 -1 19 -3 4 -6 -2 -5 -13z"/>
<path d="M1001 434 c0 -11 3 -14 6 -6 3 7 2 16 -1 19 -3 4 -6 -2 -5 -13z"/>
<path d="M1061 434 c0 -11 3 -14 6 -6 3 7 2 16 -1 19 -3 4 -6 -2 -5 -13z"/>
<path d="M1091 434 c0 -11 3 -14 6 -6 3 7 2 16 -1 19 -3 4 -6 -2 -5 -13z"/>
<path d="M1181 434 c0 -11 3 -14 6 -6 3 7 2 16 -1 19 -3 4 -6 -2 -5 -13z"/>
<path d="M1331 434 c0 -11 3 -14 6 -6 3 7 2 16 -1 19 -3 4 -6 -2 -5 -13z"/>
<path d="M1361 434 c0 -11 3 -14 6 -6 3 7 2 16 -1 19 -3 4 -6 -2 -5 -13z"/>
<path d="M1541 434 c0 -11 3 -14 6 -6 3 7 2 16 -1 19 -3 4 -6 -2 -5 -13z"/>
<path d="M1800 433 c0 -12 3 -14 8 -7 4 7 16 14 27 17 15 4 14 5 -7 6 -21 1
-28 -4 -28 -16z"/>
<path d="M1981 434 c0 -11 3 -14 6 -6 3 7 2 16 -1 19 -3 4 -6 -2 -5 -13z"/>
<path d="M2130 441 c0 -5 5 -13 10 -16 6 -3 10 -2 10 4 0 5 -4 13 -10 16 -5 3
-10 2 -10 -4z"/>
<path d="M110 430 c0 -6 40 -11 98 -12 53 -1 75 -3 47 -5 l-50 -4 3 -122 c2
-67 4 -122 5 -124 1 -1 18 2 37 7 29 7 31 8 9 9 -14 1 -26 7 -26 15 0 10 13
12 45 10 26 -1 57 3 71 11 14 8 21 14 16 15 -6 0 -9 19 -7 45 4 44 4 45 -27
45 -17 0 -31 -4 -31 -9 0 -4 11 -6 25 -3 18 3 25 0 25 -12 0 -11 -9 -16 -30
-16 -23 0 -28 -3 -23 -17 4 -11 3 -14 -5 -9 -7 4 -12 20 -12 37 0 25 -4 29
-29 29 -27 0 -29 3 -28 35 1 22 6 35 15 35 7 0 10 -5 6 -12 -4 -6 3 -4 17 5
33 24 37 22 42 -20 3 -28 4 -23 5 20 l2 57 -100 0 c-60 0 -100 -4 -100 -10z
m160 -135 c0 -8 -9 -15 -20 -15 -20 0 -26 11 -13 23 12 13 33 7 33 -8z m9 -46
c32 -23 61 -18 40 7 -9 10 -9 14 0 14 18 0 25 -29 11 -45 -16 -20 -22 -19 -48
5 -18 17 -22 18 -22 5 0 -8 -4 -15 -10 -15 -5 0 -10 11 -10 25 0 30 3 31 39 4z"/>
<path d="M3 370 c0 -25 2 -35 4 -22 2 12 2 32 0 45 -2 12 -4 2 -4 -23z"/>
<path d="M332 403 c11 -3 18 -17 21 -41 l4 -37 1 43 c2 38 0 42 -20 41 -17 -1
-18 -3 -6 -6z"/>
<path d="M382 368 l1 -43 4 38 c4 31 8 37 28 37 20 0 24 -6 28 -37 l4 -38 1
43 c2 42 2 42 -33 42 -35 0 -35 0 -33 -42z"/>
<path d="M472 368 l1 -43 4 38 c4 31 8 37 28 37 20 0 24 -6 28 -37 l4 -38 1
43 c2 42 2 42 -33 42 -35 0 -35 0 -33 -42z"/>
<path d="M562 368 l1 -43 4 38 c4 31 8 37 28 37 20 0 24 -6 28 -37 l4 -38 1
43 c2 42 2 42 -33 42 -35 0 -35 0 -33 -42z"/>
<path d="M652 368 l1 -43 4 38 c4 31 8 37 28 37 20 0 24 -6 28 -37 l4 -38 1
43 c2 42 2 42 -33 42 -35 0 -35 0 -33 -42z"/>
<path d="M742 368 l1 -43 4 38 c4 31 8 37 28 37 20 0 24 -6 28 -37 l4 -38 1
43 c2 42 2 42 -33 42 -35 0 -35 0 -33 -42z"/>
<path d="M832 368 l1 -43 4 38 c4 31 8 37 28 37 20 0 24 -6 28 -37 l4 -38 1
43 c2 42 2 42 -33 42 -35 0 -35 0 -33 -42z"/>
<path d="M922 368 l1 -43 4 38 c3 29 9 37 24 37 15 0 19 -7 19 -37 0 -46 13
-36 15 12 1 33 -1 35 -32 35 -32 0 -33 -1 -31 -42z"/>
<path d="M1002 368 l1 -43 4 38 c4 31 8 37 28 37 20 0 24 -6 27 -37 l3 -38 5
43 6 42 -38 0 -38 0 2 -42z"/>
<path d="M1092 368 l1 -43 4 38 c4 32 8 37 29 37 21 0 24 -4 24 -37 0 -45 6
-41 13 10 l5 37 -39 0 -39 0 2 -42z"/>
<path d="M1182 368 l1 -43 4 38 c4 31 8 37 28 37 20 0 24 -6 27 -37 l3 -38 5
43 6 42 -38 0 -38 0 2 -42z"/>
<path d="M1272 368 l1 -43 4 38 c4 31 8 37 28 37 20 0 24 -6 27 -37 l3 -38 5
43 6 42 -38 0 -38 0 2 -42z"/>
<path d="M1362 368 l1 -43 4 38 c4 31 8 37 28 37 20 0 24 -6 27 -37 l3 -38 5
43 6 42 -38 0 -38 0 2 -42z"/>
<path d="M1452 368 l1 -43 4 38 c4 31 8 37 28 37 20 0 24 -6 27 -37 l3 -38 5
43 6 42 -38 0 -38 0 2 -42z"/>
<path d="M1542 368 l1 -43 4 38 c4 31 8 37 28 37 20 0 24 -6 28 -37 l4 -38 1
43 c2 42 2 42 -33 42 -35 0 -35 0 -33 -42z"/>
<path d="M1620 370 c0 -22 4 -40 8 -40 4 0 6 16 4 35 -4 34 -3 35 28 35 31 0
32 -1 28 -35 -2 -19 0 -35 4 -35 4 0 8 18 8 40 0 40 0 40 -40 40 -40 0 -40 0
-40 -40z"/>
<path d="M1712 368 l1 -43 4 38 c4 33 7 37 33 37 26 0 29 -4 33 -37 l4 -38 1
43 2 42 -40 0 -40 0 2 -42z"/>
<path d="M1802 368 l1 -43 4 38 c4 33 7 37 33 37 26 0 29 -4 33 -37 l4 -38 1
43 2 42 -40 0 -40 0 2 -42z"/>
<path d="M1890 370 c0 -22 4 -40 8 -40 4 0 6 16 4 35 -4 33 -3 35 26 35 28 0
31 -3 35 -37 l4 -38 1 43 2 42 -40 0 c-40 0 -40 0 -40 -40z"/>
<path d="M1982 368 l1 -43 4 38 c4 33 7 37 33 37 26 0 29 -4 33 -37 l4 -38 1
43 2 42 -40 0 -40 0 2 -42z"/>
<path d="M2072 368 l1 -43 4 38 c4 33 7 37 33 37 26 0 29 -4 33 -37 l4 -38 1
43 2 42 -40 0 -40 0 2 -42z"/>
<path d="M2162 368 l1 -43 4 38 c4 31 8 37 28 37 13 0 26 -6 28 -12 3 -8 6 -6
6 5 1 13 -7 17 -34 17 -35 0 -35 0 -33 -42z"/>
<path d="M2272 403 c34 -4 37 -7 41 -41 l4 -37 1 43 2 42 -42 -2 -43 -1 37 -4z"/>
<path d="M2330 376 c0 -19 4 -37 9 -41 6 -3 7 9 4 30 -5 34 -4 35 25 35 28 0
31 -3 35 -37 l4 -38 1 43 2 42 -40 0 c-39 0 -40 -1 -40 -34z"/>
<path d="M2433 403 c9 -2 23 -2 30 0 6 3 -1 5 -18 5 -16 0 -22 -2 -12 -5z"/>
<path d="M2722 368 l1 -43 4 38 c3 25 9 37 20 37 11 0 14 -8 11 -30 -3 -17 -1
-33 4 -36 4 -3 8 13 8 35 0 37 -2 41 -25 41 -23 0 -25 -3 -23 -42z"/>
<path d="M2780 370 c0 -22 4 -40 9 -40 6 0 7 16 4 35 -5 32 -4 35 20 35 22 0
26 -5 30 -37 l4 -38 1 43 c2 42 2 42 -33 42 -34 0 -35 -1 -35 -40z"/>
<path d="M122 355 c0 -16 2 -22 5 -12 2 9 2 23 0 30 -3 6 -5 -1 -5 -18z"/>
<path d="M266 355 c-3 -9 -11 -13 -17 -9 -8 5 -9 3 -4 -5 6 -10 11 -9 23 3 9
8 13 18 10 21 -3 3 -8 -1 -12 -10z"/>
<path d="M2222 350 c0 -14 2 -19 5 -12 2 6 2 18 0 25 -3 6 -5 1 -5 -13z"/>
<path d="M3 280 c0 -25 2 -35 4 -22 2 12 2 32 0 45 -2 12 -4 2 -4 -23z"/>
<path d="M32 278 l1 -43 4 38 c4 31 8 37 28 37 20 0 24 -6 28 -37 l4 -38 1 43
c2 42 2 42 -33 42 -35 0 -35 0 -33 -42z"/>
<path d="M381 303 c0 -11 3 -13 6 -5 2 6 15 12 28 12 13 0 26 -6 28 -12 3 -8
6 -6 6 5 1 13 -7 17 -34 17 -27 0 -35 -4 -34 -17z"/>
<path d="M471 303 c0 -11 3 -13 6 -5 2 6 15 12 28 12 13 0 26 -6 28 -12 3 -8
6 -6 6 5 1 13 -7 17 -34 17 -27 0 -35 -4 -34 -17z"/>
<path d="M561 303 c0 -11 3 -13 6 -5 2 6 15 12 28 12 13 0 26 -6 28 -12 3 -8
6 -6 6 5 1 13 -7 17 -34 17 -27 0 -35 -4 -34 -17z"/>
<path d="M651 303 c0 -11 3 -13 6 -5 2 6 15 12 28 12 13 0 26 -6 28 -12 3 -8
6 -6 6 5 1 13 -7 17 -34 17 -27 0 -35 -4 -34 -17z"/>
<path d="M741 303 c0 -11 3 -13 6 -5 2 6 15 12 28 12 13 0 26 -6 28 -12 3 -8
6 -6 6 5 1 13 -7 17 -34 17 -27 0 -35 -4 -34 -17z"/>
<path d="M831 303 c0 -11 3 -13 6 -5 2 6 15 12 28 12 13 0 26 -6 28 -12 3 -8
6 -6 6 5 1 13 -7 17 -34 17 -27 0 -35 -4 -34 -17z"/>
<path d="M921 303 c0 -11 3 -13 6 -5 6 15 40 16 45 0 3 -7 7 -6 11 5 5 14 0
17 -28 17 -27 0 -35 -4 -34 -17z"/>
<path d="M1002 278 l1 -43 4 38 c4 31 8 37 28 37 13 0 25 -5 27 -12 3 -7 7 -6
11 5 5 14 0 17 -33 17 l-40 0 2 -42z"/>
<path d="M1091 303 c0 -11 3 -13 6 -5 6 15 50 16 55 0 3 -7 7 -6 11 5 5 14 0
17 -33 17 -32 0 -40 -4 -39 -17z"/>
<path d="M1181 304 c0 -11 3 -14 6 -6 3 7 2 16 -1 19 -3 4 -6 -2 -5 -13z"/>
<path d="M1215 313 c11 -3 23 -10 26 -15 3 -5 9 -3 12 6 5 13 0 16 -26 15 -21
-1 -25 -3 -12 -6z"/>
<path d="M1271 303 c0 -11 3 -13 6 -5 6 15 50 16 55 0 3 -7 7 -6 11 5 5 14 0
17 -33 17 -32 0 -40 -4 -39 -17z"/>
<path d="M1361 303 c0 -11 3 -13 6 -5 6 15 50 16 55 0 3 -7 7 -6 11 5 5 14 0
17 -33 17 -32 0 -40 -4 -39 -17z"/>
<path d="M1452 278 l1 -43 4 38 c4 31 8 37 28 37 13 0 25 -5 27 -12 3 -7 7 -6
11 5 5 14 0 17 -33 17 l-40 0 2 -42z"/>
<path d="M1541 303 c0 -11 3 -13 6 -5 2 6 15 12 28 12 13 0 26 -6 28 -12 3 -8
6 -6 6 5 1 13 -7 17 -34 17 -27 0 -35 -4 -34 -17z"/>
<path d="M1621 303 c0 -11 3 -13 6 -5 2 6 17 12 33 12 16 0 31 -6 33 -12 3 -8
6 -6 6 5 1 13 -7 17 -39 17 -32 0 -40 -4 -39 -17z"/>
<path d="M1711 303 c0 -11 3 -13 6 -5 2 6 17 12 33 12 16 0 31 -6 33 -12 3 -8
6 -6 6 5 1 13 -7 17 -39 17 -32 0 -40 -4 -39 -17z"/>
<path d="M1801 303 c0 -11 3 -13 6 -5 2 6 18 12 34 12 24 0 29 -4 29 -25 0
-21 -5 -25 -29 -25 -16 0 -32 6 -34 13 -3 6 -6 3 -6 -8 -1 -17 5 -20 39 -20
40 0 40 0 40 38 0 37 0 37 -40 37 -32 0 -40 -4 -39 -17z"/>
<path d="M1890 283 c0 -38 0 -38 40 -38 34 0 40 3 39 20 0 11 -3 14 -6 8 -2
-7 -18 -13 -34 -13 -24 0 -29 4 -29 25 0 21 5 25 29 25 16 0 32 -6 34 -12 3
-8 6 -6 6 5 1 13 -7 17 -39 17 -40 0 -40 0 -40 -37z"/>
<path d="M1981 303 c0 -11 3 -13 6 -5 2 6 17 12 33 12 16 0 31 -6 33 -12 3 -8
6 -6 6 5 1 13 -7 17 -39 17 -32 0 -40 -4 -39 -17z"/>
<path d="M2071 303 c0 -11 3 -13 6 -5 2 6 17 12 33 12 16 0 31 -6 33 -12 3 -8
6 -6 6 5 1 13 -7 17 -39 17 -32 0 -40 -4 -39 -17z"/>
<path d="M2161 303 c0 -11 3 -13 6 -5 2 6 15 12 28 12 13 0 26 -6 28 -12 3 -8
6 -6 6 5 1 13 -7 17 -34 17 -27 0 -35 -4 -34 -17z"/>
<path d="M2272 313 c34 -4 37 -7 41 -41 l4 -37 1 43 2 42 -42 -2 -43 -1 37 -4z"/>
<path d="M2330 305 c0 -8 5 -15 10 -15 6 0 10 5 10 10 0 15 47 12 53 -2 3 -8
6 -6 6 5 1 13 -7 17 -39 17 -29 0 -40 -4 -40 -15z"/>
<path d="M2433 313 c9 -2 23 -2 30 0 6 3 -1 5 -18 5 -16 0 -22 -2 -12 -5z"/>
<path d="M2720 311 c0 -5 10 -7 21 -4 19 5 21 3 17 -26 -3 -17 -1 -34 4 -37 4
-3 8 13 8 35 0 37 -2 41 -25 41 -14 0 -25 -4 -25 -9z"/>
<path d="M2780 280 c0 -22 4 -40 9 -40 6 0 7 15 4 34 -5 30 -2 35 18 39 22 4
22 4 -3 6 -26 1 -28 -2 -28 -39z"/>
<path d="M2838 280 c-2 -22 0 -40 4 -40 5 0 8 18 8 40 0 22 -2 40 -4 40 -2 0
-6 -18 -8 -40z"/>
<path d="M382 260 c0 -14 2 -19 5 -12 2 6 2 18 0 25 -3 6 -5 1 -5 -13z"/>
<path d="M442 260 c0 -14 2 -19 5 -12 2 6 2 18 0 25 -3 6 -5 1 -5 -13z"/>
<path d="M472 260 c0 -14 2 -19 5 -12 2 6 2 18 0 25 -3 6 -5 1 -5 -13z"/>
<path d="M532 260 c0 -14 2 -19 5 -12 2 6 2 18 0 25 -3 6 -5 1 -5 -13z"/>
<path d="M562 260 c0 -14 2 -19 5 -12 2 6 2 18 0 25 -3 6 -5 1 -5 -13z"/>
<path d="M652 260 c0 -14 2 -19 5 -12 2 6 2 18 0 25 -3 6 -5 1 -5 -13z"/>
<path d="M712 260 c0 -14 2 -19 5 -12 2 6 2 18 0 25 -3 6 -5 1 -5 -13z"/>
<path d="M742 260 c0 -14 2 -19 5 -12 2 6 2 18 0 25 -3 6 -5 1 -5 -13z"/>
<path d="M802 260 c0 -14 2 -19 5 -12 2 6 2 18 0 25 -3 6 -5 1 -5 -13z"/>
<path d="M892 260 c0 -14 2 -19 5 -12 2 6 2 18 0 25 -3 6 -5 1 -5 -13z"/>
<path d="M922 260 c0 -14 2 -19 5 -12 2 6 2 18 0 25 -3 6 -5 1 -5 -13z"/>
<path d="M960 264 l-25 -14 26 0 c16 0 26 5 26 15 0 8 -1 15 -1 14 -1 -1 -12
-7 -26 -15z"/>
<path d="M1061 264 c0 -11 3 -14 6 -6 3 7 2 16 -1 19 -3 4 -6 -2 -5 -13z"/>
<path d="M1092 260 c0 -14 2 -19 5 -12 2 6 2 18 0 25 -3 6 -5 1 -5 -13z"/>
<path d="M1182 260 c0 -14 2 -19 5 -12 2 6 2 18 0 25 -3 6 -5 1 -5 -13z"/>
<path d="M1241 264 c0 -11 3 -14 6 -6 3 7 2 16 -1 19 -3 4 -6 -2 -5 -13z"/>
<path d="M1272 260 c0 -14 2 -19 5 -12 2 6 2 18 0 25 -3 6 -5 1 -5 -13z"/>
<path d="M1326 265 c-3 -8 -1 -15 4 -15 6 0 10 7 10 15 0 8 -2 15 -4 15 -2 0
-6 -7 -10 -15z"/>
<path d="M1362 260 c0 -14 2 -19 5 -12 2 6 2 18 0 25 -3 6 -5 1 -5 -13z"/>
<path d="M1422 260 c0 -14 2 -19 5 -12 2 6 2 18 0 25 -3 6 -5 1 -5 -13z"/>
<path d="M1510 271 c0 -5 -10 -12 -22 -14 -20 -4 -19 -4 5 -6 18 -1 27 4 27
14 0 8 -2 15 -5 15 -3 0 -5 -4 -5 -9z"/>
<path d="M1542 260 c0 -14 2 -19 5 -12 2 6 2 18 0 25 -3 6 -5 1 -5 -13z"/>
<path d="M1600 271 c0 -5 -10 -11 -22 -13 -21 -3 -21 -4 5 -9 22 -5 27 -3 27
12 0 11 -2 19 -5 19 -3 0 -5 -4 -5 -9z"/>
<path d="M1621 265 c-1 -17 5 -20 39 -20 34 0 40 3 39 20 0 11 -3 14 -6 8 -2
-7 -17 -13 -33 -13 -16 0 -31 6 -33 13 -3 6 -6 3 -6 -8z"/>
<path d="M1710 259 c0 -11 4 -18 10 -14 5 3 7 12 3 20 -7 21 -13 19 -13 -6z"/>
<path d="M1782 260 c0 -14 2 -19 5 -12 2 6 2 18 0 25 -3 6 -5 1 -5 -13z"/>
<path d="M1980 264 c0 -18 5 -20 33 -15 29 5 30 6 7 9 -14 2 -28 9 -32 16 -5
7 -8 3 -8 -10z"/>
<path d="M2051 264 c0 -11 3 -14 6 -6 3 7 2 16 -1 19 -3 4 -6 -2 -5 -13z"/>
<path d="M2070 259 c0 -11 4 -18 10 -14 5 3 7 12 3 20 -7 21 -13 19 -13 -6z"/>
<path d="M2141 264 c0 -11 3 -14 6 -6 3 7 2 16 -1 19 -3 4 -6 -2 -5 -13z"/>
<path d="M2162 260 c0 -14 2 -19 5 -12 2 6 2 18 0 25 -3 6 -5 1 -5 -13z"/>
<path d="M2222 260 c0 -14 2 -19 5 -12 2 6 2 18 0 25 -3 6 -5 1 -5 -13z"/>
<path d="M2330 265 c0 -8 4 -15 10 -15 5 0 7 7 4 15 -4 8 -8 15 -10 15 -2 0
-4 -7 -4 -15z"/>
<path d="M2402 260 c0 -14 2 -19 5 -12 2 6 2 18 0 25 -3 6 -5 1 -5 -13z"/>
<path d="M621 254 c0 -11 3 -14 6 -6 3 7 2 16 -1 19 -3 4 -6 -2 -5 -13z"/>
<path d="M2263 253 c9 -2 23 -2 30 0 6 3 -1 5 -18 5 -16 0 -22 -2 -12 -5z"/>
<path d="M2518 243 c7 -3 16 -2 19 1 4 3 -2 6 -13 5 -11 0 -14 -3 -6 -6z"/>
<path d="M3 195 c0 -22 2 -30 4 -17 2 12 2 30 0 40 -3 9 -5 -1 -4 -23z"/>
<path d="M30 195 c0 -33 2 -35 35 -35 33 0 35 2 35 35 0 33 -2 35 -35 35 -33
0 -35 -2 -35 -35z m60 0 c0 -20 -5 -25 -25 -25 -20 0 -25 5 -25 25 0 20 5 25
25 25 20 0 25 -5 25 -25z"/>
<path d="M380 223 c0 -5 16 -8 35 -8 19 0 35 3 35 8 0 4 -16 7 -35 7 -19 0
-35 -3 -35 -7z"/>
<path d="M470 222 c0 -5 16 -9 35 -9 19 0 35 4 35 9 0 4 -16 8 -35 8 -19 0
-35 -4 -35 -8z"/>
<path d="M560 222 c0 -5 16 -9 35 -9 19 0 35 4 35 9 0 4 -16 8 -35 8 -19 0
-35 -4 -35 -8z"/>
<path d="M650 223 c0 -5 16 -8 35 -8 19 0 35 3 35 8 0 4 -16 7 -35 7 -19 0
-35 -3 -35 -7z"/>
<path d="M740 223 c0 -5 16 -8 35 -8 19 0 35 3 35 7 0 4 -16 8 -35 8 -19 0
-35 -3 -35 -7z"/>
<path d="M830 222 c0 -5 16 -9 35 -9 19 0 35 4 35 9 0 4 -16 8 -35 8 -19 0
-35 -4 -35 -8z"/>
<path d="M920 222 c0 -4 16 -8 35 -9 19 0 35 3 35 8 0 5 -16 9 -35 9 -19 0
-35 -4 -35 -8z"/>
<path d="M1000 222 c0 -4 18 -9 40 -10 23 -2 40 2 40 8 0 5 -18 10 -40 10 -22
0 -40 -4 -40 -8z"/>
<path d="M1090 221 c0 -10 65 -9 76 2 4 4 -11 7 -34 7 -23 0 -42 -4 -42 -9z"/>
<path d="M1180 221 c0 -10 65 -9 76 2 4 4 -11 7 -34 7 -23 0 -42 -4 -42 -9z"/>
<path d="M1270 222 c0 -10 66 -10 76 1 4 4 -11 7 -34 7 -23 0 -42 -4 -42 -8z"/>
<path d="M1360 221 c0 -10 65 -9 76 2 4 4 -11 7 -34 7 -23 0 -42 -4 -42 -9z"/>
<path d="M1450 221 c0 -10 65 -9 76 2 4 4 -11 7 -34 7 -23 0 -42 -4 -42 -9z"/>
<path d="M1540 222 c0 -4 16 -9 35 -10 19 -2 35 2 35 8 0 5 -16 10 -35 10 -19
0 -35 -4 -35 -8z"/>
<path d="M1620 220 c0 -5 18 -10 40 -10 22 0 40 5 40 10 0 6 -18 10 -40 10
-22 0 -40 -4 -40 -10z"/>
<path d="M1710 222 c0 -5 18 -9 40 -9 22 0 40 3 40 8 0 5 -18 9 -40 9 -22 0
-40 -4 -40 -8z"/>
<path d="M1800 223 c0 -5 18 -9 40 -10 22 0 40 3 40 8 0 5 -18 9 -40 9 -22 0
-40 -3 -40 -7z"/>
<path d="M1890 223 c0 -5 18 -9 40 -10 22 -2 40 2 40 7 0 6 -18 10 -40 10 -22
0 -40 -3 -40 -7z"/>
<path d="M1980 223 c0 -5 18 -8 40 -9 22 0 40 4 40 8 0 4 -18 8 -40 8 -22 0
-40 -3 -40 -7z"/>
<path d="M2070 220 c0 -5 18 -10 40 -10 22 0 40 5 40 10 0 6 -18 10 -40 10
-22 0 -40 -4 -40 -10z"/>
<path d="M2160 222 c0 -5 16 -9 35 -9 19 0 35 4 35 9 0 4 -16 8 -35 8 -19 0
-35 -4 -35 -8z"/>
<path d="M2244 223 c10 -11 76 -11 76 -1 0 4 -19 8 -42 8 -23 0 -38 -3 -34 -7z"/>
<path d="M2330 221 c0 -5 18 -8 40 -8 22 0 40 4 40 9 0 4 -18 8 -40 8 -22 0
-40 -4 -40 -9z"/>
<path d="M2420 222 c0 -4 18 -8 40 -7 22 0 40 3 40 8 0 4 -18 7 -40 7 -22 0
-40 -4 -40 -8z"/>
<path d="M2720 221 c28 -5 35 -11 36 -29 1 -21 -3 -23 -33 -20 -18 2 -33 0
-33 -4 0 -4 18 -8 40 -8 39 0 40 1 40 35 0 35 0 35 -42 34 l-43 -2 35 -6z"/>
<path d="M2780 195 c0 -33 2 -35 35 -35 33 0 35 2 35 35 0 33 -2 35 -35 35
-33 0 -35 -2 -35 -35z m60 0 c0 -18 -5 -25 -20 -25 -15 0 -20 7 -20 25 0 18 5
25 20 25 15 0 20 -7 20 -25z"/>
<path d="M313 190 c-34 -14 -28 -20 20 -19 28 1 34 3 17 7 -23 4 -24 5 -5 13
12 5 14 8 5 8 -8 0 -25 -4 -37 -9z"/>
<path d="M381 188 c-1 -14 7 -18 39 -18 33 0 38 3 33 17 -4 11 -8 12 -11 5 -5
-16 -49 -15 -55 1 -3 7 -6 5 -6 -5z"/>
<path d="M471 188 c-1 -14 7 -18 39 -18 33 0 38 3 33 17 -4 11 -8 12 -11 5 -5
-16 -49 -15 -55 1 -3 7 -6 5 -6 -5z"/>
<path d="M561 188 c-1 -14 7 -18 39 -18 33 0 38 3 33 17 -4 11 -8 12 -11 5 -5
-16 -49 -15 -55 1 -3 7 -6 5 -6 -5z"/>
<path d="M651 188 c-1 -14 7 -18 39 -18 33 0 38 3 33 17 -4 11 -8 12 -11 5 -5
-16 -49 -15 -55 1 -3 7 -6 5 -6 -5z"/>
<path d="M741 188 c-1 -14 7 -18 39 -18 33 0 38 3 33 17 -4 11 -8 12 -11 5 -5
-16 -49 -15 -55 1 -3 7 -6 5 -6 -5z"/>
<path d="M831 188 c-1 -14 7 -18 39 -18 33 0 38 3 33 17 -4 11 -8 12 -11 5 -5
-16 -49 -15 -55 1 -3 7 -6 5 -6 -5z"/>
<path d="M921 188 c-1 -14 7 -18 34 -18 28 0 33 3 28 17 -4 11 -8 12 -11 5 -5
-16 -39 -15 -45 1 -3 7 -6 5 -6 -5z"/>
<path d="M1000 188 c0 -15 8 -18 43 -16 40 1 40 1 7 5 -19 3 -38 10 -42 16 -5
8 -8 6 -8 -5z"/>
<path d="M1090 188 c0 -15 8 -18 43 -16 40 1 40 1 7 5 -19 3 -38 10 -42 16 -5
8 -8 6 -8 -5z"/>
<path d="M1180 188 c0 -15 8 -18 43 -16 40 1 40 1 7 5 -19 3 -38 10 -42 16 -5
8 -8 6 -8 -5z"/>
<path d="M1270 188 c0 -15 8 -18 43 -16 40 1 40 1 7 5 -19 3 -38 10 -42 16 -5
8 -8 6 -8 -5z"/>
<path d="M1361 188 c-1 -14 7 -18 39 -18 33 0 38 3 33 17 -4 11 -8 12 -11 5
-5 -16 -49 -15 -55 1 -3 7 -6 5 -6 -5z"/>
<path d="M1450 185 c0 -18 5 -20 43 -16 l42 6 -35 3 c-19 2 -38 9 -42 15 -5 8
-8 4 -8 -8z"/>
<path d="M1541 188 c-1 -14 7 -18 34 -18 27 0 35 4 34 18 0 10 -3 12 -6 5 -2
-7 -15 -13 -28 -13 -13 0 -26 6 -28 13 -3 7 -6 5 -6 -5z"/>
<path d="M1621 188 c-1 -14 7 -18 39 -18 32 0 40 4 39 18 0 10 -3 12 -6 5 -2
-7 -17 -13 -33 -13 -16 0 -31 6 -33 13 -3 7 -6 5 -6 -5z"/>
<path d="M1711 188 c-1 -14 7 -18 39 -18 32 0 40 4 39 18 0 10 -3 12 -6 5 -2
-7 -17 -13 -33 -13 -16 0 -31 6 -33 13 -3 7 -6 5 -6 -5z"/>
<path d="M1801 189 c-1 -13 10 -18 39 -21 35 -3 40 -1 39 17 0 11 -3 14 -6 8
-2 -7 -17 -13 -33 -13 -16 0 -31 6 -33 13 -4 7 -6 6 -6 -4z"/>
<path d="M1891 189 c-1 -13 10 -18 39 -21 35 -3 40 -1 39 17 0 11 -3 14 -6 8
-2 -7 -17 -13 -33 -13 -16 0 -31 6 -33 13 -4 7 -6 6 -6 -4z"/>
<path d="M1981 185 c-1 -18 4 -20 39 -17 29 3 40 8 39 21 0 10 -2 11 -6 4 -2
-7 -17 -13 -33 -13 -16 0 -31 6 -33 13 -3 6 -6 3 -6 -8z"/>
<path d="M2071 189 c-1 -13 10 -18 39 -21 35 -3 40 -1 39 17 0 11 -3 14 -6 8
-2 -7 -17 -13 -33 -13 -16 0 -31 6 -33 13 -4 7 -6 6 -6 -4z"/>
<path d="M2161 188 c-1 -14 7 -18 34 -18 27 0 35 4 34 18 0 10 -3 12 -6 5 -2
-7 -15 -13 -28 -13 -13 0 -26 6 -28 13 -3 7 -6 5 -6 -5z"/>
<path d="M2310 191 c0 -6 -17 -12 -37 -14 l-38 -4 43 -1 c31 -2 42 2 42 13 0
8 -2 15 -5 15 -3 0 -5 -4 -5 -9z"/>
<path d="M2331 188 c-1 -14 7 -18 39 -18 32 0 40 4 39 18 0 10 -3 12 -6 5 -2
-7 -17 -13 -33 -13 -16 0 -31 6 -33 13 -3 7 -6 5 -6 -5z"/>
<path d="M2490 191 c0 -6 -17 -12 -37 -14 l-38 -4 43 -1 c31 -2 42 2 42 13 0
8 -2 15 -5 15 -3 0 -5 -4 -5 -9z"/>
<path d="M3 110 c0 -25 2 -35 4 -22 2 12 2 32 0 45 -2 12 -4 2 -4 -23z"/>
<path d="M58 143 c28 -4 32 -8 32 -33 0 -25 -4 -29 -32 -33 -32 -4 -32 -4 5
-5 37 -2 37 -2 37 38 0 40 0 40 -37 38 -37 -1 -37 -1 -5 -5z"/>
<path d="M560 108 c0 -36 1 -38 34 -38 31 0 34 3 38 34 4 33 3 34 -34 38 -38
4 -38 3 -38 -34z m60 -9 c0 -14 -7 -19 -25 -19 -20 0 -25 5 -25 24 0 19 4 22
25 18 16 -3 25 -11 25 -23z"/>
<path d="M1000 108 c0 -37 1 -38 38 -38 36 0 37 1 37 34 0 32 -2 35 -37 38
-38 4 -38 3 -38 -34z m60 -9 c0 -14 -7 -19 -25 -19 -20 0 -25 5 -25 24 0 19 4
22 25 18 16 -3 25 -11 25 -23z"/>
<path d="M1450 108 c0 -37 1 -38 38 -38 36 0 37 1 37 34 0 32 -2 35 -37 38
-38 4 -38 3 -38 -34z m60 -9 c0 -14 -7 -19 -25 -19 -20 0 -25 5 -25 24 0 19 4
22 25 18 16 -3 25 -11 25 -23z"/>
<path d="M1573 143 c-30 -4 -33 -7 -33 -39 0 -32 2 -34 35 -34 34 0 35 1 35
40 0 22 -1 39 -2 38 -2 0 -18 -3 -35 -5z m27 -44 c0 -14 -7 -19 -25 -19 -20 0
-25 5 -25 24 0 19 4 22 25 18 16 -3 25 -11 25 -23z"/>
<path d="M1658 143 c-36 -4 -38 -6 -38 -39 0 -33 1 -34 40 -34 40 0 40 0 40
40 0 22 -1 39 -2 38 -2 -1 -20 -3 -40 -5z m32 -43 c0 -16 -7 -20 -30 -20 -23
0 -30 4 -30 20 0 16 7 20 30 20 23 0 30 -4 30 -20z"/>
<path d="M1710 108 c0 -38 0 -38 40 -38 40 0 40 0 40 38 0 37 0 37 -40 37 -40
0 -40 0 -40 -37z m70 -9 c0 -14 -7 -19 -30 -19 -23 0 -30 5 -30 19 0 11 6 21
13 24 22 7 47 -5 47 -24z"/>
<path d="M1800 108 c0 -38 0 -38 40 -38 40 0 40 0 40 38 0 37 0 37 -40 37 -40
0 -40 0 -40 -37z m70 -8 c0 -16 -7 -20 -30 -20 -23 0 -30 4 -30 20 0 16 7 20
30 20 23 0 30 -4 30 -20z"/>
<path d="M1890 108 c0 -38 0 -38 40 -38 40 0 40 0 40 38 0 37 0 37 -40 37 -40
0 -40 0 -40 -37z m70 -8 c0 -16 -7 -20 -30 -20 -23 0 -30 4 -30 20 0 16 7 20
30 20 23 0 30 -4 30 -20z"/>
<path d="M1980 108 c0 -38 0 -38 40 -38 40 0 40 0 40 38 0 37 0 37 -40 37 -40
0 -40 0 -40 -37z m70 -8 c0 -16 -7 -20 -30 -20 -23 0 -30 4 -30 20 0 16 7 20
30 20 23 0 30 -4 30 -20z"/>
<path d="M2070 108 c0 -38 0 -38 40 -38 40 0 40 0 40 38 0 37 0 37 -40 37 -40
0 -40 0 -40 -37z m70 -8 c0 -16 -7 -20 -30 -20 -23 0 -30 4 -30 20 0 16 7 20
30 20 23 0 30 -4 30 -20z"/>
<path d="M2280 141 c-19 -3 -36 -11 -37 -17 -2 -8 8 -9 32 -4 32 7 35 6 35
-15 0 -20 -6 -24 -37 -28 l-38 -4 43 -1 42 -2 0 40 c0 22 -1 39 -2 39 -2 -1
-19 -5 -38 -8z"/>
<path d="M2330 108 c0 -38 0 -38 40 -38 39 0 40 1 40 34 0 32 -2 34 -40 38
l-40 4 0 -38z m70 -8 c0 -15 -7 -20 -25 -20 -18 0 -25 5 -25 20 0 15 7 20 25
20 18 0 25 -5 25 -20z"/>
<path d="M2510 108 c0 -38 0 -38 40 -38 39 0 40 1 40 33 0 32 2 33 40 35 39 3
40 2 40 -29 0 -30 -2 -31 -35 -27 -19 2 -35 0 -35 -4 0 -4 18 -8 40 -8 l40 0
0 41 0 40 -85 -3 -85 -3 0 -37z m70 -9 c0 -14 -7 -19 -30 -19 -23 0 -30 5 -30
19 0 11 6 21 13 24 22 7 47 -5 47 -24z"/>
<path d="M2691 128 c1 -14 3 -17 6 -7 3 11 12 14 33 11 23 -3 30 -9 30 -28 0
-19 -6 -23 -37 -27 l-38 -4 43 -1 42 -2 0 40 c0 40 0 40 -40 40 -35 0 -40 -3
-39 -22z"/>
<path d="M2780 110 c0 -39 1 -40 35 -40 34 0 35 1 35 40 0 39 -1 40 -35 40
-34 0 -35 -1 -35 -40z m60 -2 c0 -23 -4 -28 -25 -28 -20 0 -25 5 -25 23 0 29
6 36 31 34 14 -1 19 -9 19 -29z"/>
<path d="M298 105 c4 -31 8 -35 32 -35 24 0 28 4 32 35 4 34 3 35 -32 35 -35
0 -36 -1 -32 -35z m52 -6 c0 -12 -7 -19 -20 -19 -14 0 -20 7 -20 24 0 19 4 23
20 19 11 -3 20 -14 20 -24z"/>
<path d="M380 105 c0 -33 2 -35 34 -35 31 0 34 3 38 35 4 35 4 35 -34 35 -37
0 -38 -1 -38 -35z m60 -5 c0 -15 -7 -20 -25 -20 -18 0 -25 5 -25 20 0 15 7 20
25 20 18 0 25 -5 25 -20z"/>
<path d="M470 105 c0 -33 2 -35 35 -35 33 0 35 2 35 35 0 33 -2 35 -35 35 -33
0 -35 -2 -35 -35z m60 -5 c0 -15 -7 -20 -25 -20 -18 0 -25 5 -25 20 0 15 7 20
25 20 18 0 25 -5 25 -20z"/>
<path d="M650 105 c0 -33 2 -35 34 -35 31 0 34 3 38 35 4 35 4 35 -34 35 -37
0 -38 -1 -38 -35z m60 -5 c0 -15 -7 -20 -25 -20 -18 0 -25 5 -25 20 0 15 7 20
25 20 18 0 25 -5 25 -20z"/>
<path d="M740 105 c0 -33 2 -35 34 -35 31 0 34 3 38 35 4 35 4 35 -34 35 -37
0 -38 -1 -38 -35z m60 0 c0 -20 -5 -25 -25 -25 -33 0 -35 37 -2 43 12 2 23 5
25 6 1 0 2 -10 2 -24z"/>
<path d="M830 105 c0 -33 2 -35 34 -35 31 0 34 3 38 35 4 35 4 35 -34 35 -37
0 -38 -1 -38 -35z m60 -5 c0 -15 -7 -20 -25 -20 -18 0 -25 5 -25 20 0 15 7 20
25 20 18 0 25 -5 25 -20z"/>
<path d="M920 105 c0 -33 2 -35 33 -35 30 0 32 2 32 35 0 33 -2 35 -32 35 -31
0 -33 -2 -33 -35z m50 -5 c0 -13 -7 -20 -20 -20 -13 0 -20 7 -20 20 0 13 7 20
20 20 13 0 20 -7 20 -20z"/>
<path d="M1090 105 c0 -34 1 -35 38 -35 36 0 37 1 37 35 0 34 -1 35 -37 35
-37 0 -38 -1 -38 -35z m60 -6 c0 -14 -7 -19 -25 -19 -18 0 -25 5 -25 19 0 11
8 21 18 24 24 5 32 -1 32 -24z"/>
<path d="M1180 105 c0 -34 1 -35 38 -35 36 0 37 1 37 35 0 34 -1 35 -37 35
-37 0 -38 -1 -38 -35z m60 -6 c0 -14 -7 -19 -25 -19 -20 0 -25 5 -25 24 0 19
4 22 25 18 16 -3 25 -11 25 -23z"/>
<path d="M1270 105 c0 -34 1 -35 38 -35 36 0 37 1 37 35 0 34 -1 35 -37 35
-37 0 -38 -1 -38 -35z m60 -6 c0 -14 -7 -19 -25 -19 -20 0 -25 5 -25 24 0 19
4 22 25 18 16 -3 25 -11 25 -23z"/>
<path d="M1360 105 c0 -34 1 -35 38 -35 36 0 37 1 37 35 0 34 -1 35 -37 35
-37 0 -38 -1 -38 -35z m60 -2 c0 -18 -6 -23 -25 -23 -19 0 -25 5 -25 23 0 17
6 22 25 22 19 0 25 -5 25 -22z"/>
<path d="M2160 105 c0 -33 2 -35 35 -35 33 0 35 2 35 35 0 33 -2 35 -35 35
-33 0 -35 -2 -35 -35z m60 0 c0 -20 -5 -25 -25 -25 -33 0 -35 37 -2 43 12 2
23 5 25 6 1 0 2 -10 2 -24z"/>
<path d="M2425 130 c3 -5 19 -10 36 -10 22 0 29 -5 29 -19 0 -15 -8 -21 -37
-24 l-38 -4 43 -1 c42 -2 42 -2 42 33 0 34 -1 35 -41 35 -24 0 -38 -4 -34 -10z"/>
<path d="M32 110 c0 -14 2 -19 5 -12 2 6 2 18 0 25 -3 6 -5 1 -5 -13z"/>
<path d="M2 30 c0 -19 2 -27 5 -17 2 9 2 25 0 35 -3 9 -5 1 -5 -18z"/>
<path d="M92 30 c0 -19 2 -27 5 -17 2 9 2 25 0 35 -3 9 -5 1 -5 -18z"/>
<path d="M122 30 c0 -19 2 -27 5 -17 2 9 2 25 0 35 -3 9 -5 1 -5 -18z"/>
<path d="M178 30 c2 -17 6 -30 8 -30 2 0 4 13 4 30 0 17 -4 30 -8 30 -5 0 -7
-13 -4 -30z"/>
<path d="M268 30 c2 -17 6 -30 8 -30 2 0 4 13 4 30 0 17 -4 30 -8 30 -5 0 -7
-13 -4 -30z"/>
<path d="M382 30 c0 -19 2 -27 5 -17 2 9 2 25 0 35 -3 9 -5 1 -5 -18z"/>
<path d="M442 30 c0 -19 2 -27 5 -17 2 9 2 25 0 35 -3 9 -5 1 -5 -18z"/>
<path d="M472 30 c0 -19 2 -27 5 -17 2 9 2 25 0 35 -3 9 -5 1 -5 -18z"/>
<path d="M528 30 c2 -17 6 -30 8 -30 2 0 4 13 4 30 0 17 -4 30 -8 30 -5 0 -7
-13 -4 -30z"/>
<path d="M562 30 c0 -19 2 -27 5 -17 2 9 2 25 0 35 -3 9 -5 1 -5 -18z"/>
<path d="M622 30 c0 -19 2 -27 5 -17 2 9 2 25 0 35 -3 9 -5 1 -5 -18z"/>
<path d="M652 30 c0 -19 2 -27 5 -17 2 9 2 25 0 35 -3 9 -5 1 -5 -18z"/>
<path d="M712 30 c0 -19 2 -27 5 -17 2 9 2 25 0 35 -3 9 -5 1 -5 -18z"/>
<path d="M742 30 c0 -19 2 -27 5 -17 2 9 2 25 0 35 -3 9 -5 1 -5 -18z"/>
<path d="M802 30 c0 -19 2 -27 5 -17 2 9 2 25 0 35 -3 9 -5 1 -5 -18z"/>
<path d="M832 30 c0 -19 2 -27 5 -17 2 9 2 25 0 35 -3 9 -5 1 -5 -18z"/>
<path d="M888 30 c2 -17 6 -30 8 -30 2 0 4 13 4 30 0 17 -4 30 -8 30 -5 0 -7
-13 -4 -30z"/>
<path d="M921 28 c2 -30 2 -30 6 -6 3 22 10 28 36 31 31 4 31 4 -5 5 -37 2
-38 1 -37 -30z"/>
<path d="M1002 30 c0 -19 2 -27 5 -17 2 9 2 25 0 35 -3 9 -5 1 -5 -18z"/>
<path d="M1050 50 c0 -5 5 -10 10 -10 6 0 10 5 10 10 0 6 -4 10 -10 10 -5 0
-10 -4 -10 -10z"/>
<path d="M1092 30 c0 -19 2 -27 5 -17 2 9 2 25 0 35 -3 9 -5 1 -5 -18z"/>
<path d="M1182 30 c0 -19 2 -27 5 -17 2 9 2 25 0 35 -3 9 -5 1 -5 -18z"/>
<path d="M1230 50 c0 -5 5 -10 10 -10 6 0 10 5 10 10 0 6 -4 10 -10 10 -5 0
-10 -4 -10 -10z"/>
<path d="M1272 30 c0 -19 2 -27 5 -17 2 9 2 25 0 35 -3 9 -5 1 -5 -18z"/>
<path d="M1325 50 c3 -5 8 -10 11 -10 2 0 4 5 4 10 0 6 -5 10 -11 10 -5 0 -7
-4 -4 -10z"/>
<path d="M1362 30 c0 -19 2 -27 5 -17 2 9 2 25 0 35 -3 9 -5 1 -5 -18z"/>
<path d="M1452 30 c0 -19 2 -27 5 -17 2 9 2 25 0 35 -3 9 -5 1 -5 -18z"/>
<path d="M1500 50 c0 -5 5 -10 10 -10 6 0 10 5 10 10 0 6 -4 10 -10 10 -5 0
-10 -4 -10 -10z"/>
<path d="M1540 30 c0 -39 6 -39 12 0 3 16 1 30 -4 30 -4 0 -8 -13 -8 -30z"/>
<path d="M1602 30 c0 -19 2 -27 5 -17 2 9 2 25 0 35 -3 9 -5 1 -5 -18z"/>
<path d="M1620 30 c0 -39 6 -39 12 0 3 16 1 30 -4 30 -4 0 -8 -13 -8 -30z"/>
<path d="M1667 53 c14 -3 23 -13 26 -31 4 -24 4 -24 6 6 1 29 -2 32 -26 31
-23 -1 -24 -2 -6 -6z"/>
<path d="M1710 30 c0 -39 6 -39 12 0 3 16 1 30 -4 30 -4 0 -8 -13 -8 -30z"/>
<path d="M1748 53 c7 -3 16 -2 19 1 4 3 -2 6 -13 5 -11 0 -14 -3 -6 -6z"/>
<path d="M1782 30 c0 -19 2 -27 5 -17 2 9 2 25 0 35 -3 9 -5 1 -5 -18z"/>
<path d="M1801 28 c1 -24 3 -27 6 -10 6 32 60 32 66 0 3 -17 5 -14 6 10 1 31
0 32 -39 32 -39 0 -40 -1 -39 -32z"/>
<path d="M1890 28 c0 -36 4 -35 14 5 4 16 2 27 -4 27 -5 0 -10 -14 -10 -32z"/>
<path d="M1950 50 c0 -5 5 -10 10 -10 6 0 10 5 10 10 0 6 -4 10 -10 10 -5 0
-10 -4 -10 -10z"/>
<path d="M1981 28 c2 -31 2 -31 6 -5 4 26 7 27 39 21 22 -4 34 -2 34 5 0 6
-17 11 -40 11 -39 0 -40 -1 -39 -32z"/>
<path d="M2071 27 c1 -24 3 -26 6 -9 4 18 11 22 39 22 19 0 34 4 34 9 0 5 -18
9 -40 9 -39 1 -40 0 -39 -31z"/>
<path d="M2162 30 c0 -19 2 -27 5 -17 2 9 2 25 0 35 -3 9 -5 1 -5 -18z"/>
<path d="M2222 30 c0 -19 2 -27 5 -17 2 9 2 25 0 35 -3 9 -5 1 -5 -18z"/>
<path d="M2253 53 c9 -2 25 -2 35 0 9 3 1 5 -18 5 -19 0 -27 -2 -17 -5z"/>
<path d="M2312 30 c0 -19 2 -27 5 -17 2 9 2 25 0 35 -3 9 -5 1 -5 -18z"/>
<path d="M2330 49 c0 -5 5 -7 10 -4 6 3 10 8 10 11 0 2 -4 4 -10 4 -5 0 -10
-5 -10 -11z"/>
<path d="M2377 53 c14 -3 23 -13 26 -31 4 -24 4 -24 6 6 1 29 -2 32 -26 31
-23 -1 -24 -2 -6 -6z"/>
<path d="M2467 53 c14 -3 23 -13 26 -31 4 -24 4 -24 6 6 1 29 -2 32 -26 31
-23 -1 -24 -2 -6 -6z"/>
<path d="M2582 30 c0 -19 2 -27 5 -17 2 9 2 25 0 35 -3 9 -5 1 -5 -18z"/>
<path d="M2638 53 c7 -3 16 -2 19 1 4 3 -2 6 -13 5 -11 0 -14 -3 -6 -6z"/>
<path d="M2672 30 c0 -19 2 -27 5 -17 2 9 2 25 0 35 -3 9 -5 1 -5 -18z"/>
<path d="M2762 30 c0 -19 2 -27 5 -17 2 9 2 25 0 35 -3 9 -5 1 -5 -18z"/>
<path d="M2780 28 c0 -36 4 -35 14 5 4 16 2 27 -4 27 -5 0 -10 -14 -10 -32z"/>
<path d="M2826 52 c7 -4 14 -18 17 -32 4 -21 4 -20 6 8 1 24 -3 32 -16 32 -12
0 -14 -3 -7 -8z"/>
</g>
</svg>
